<svg width="14" height="14" viewBox="0 0 14 14" fill="none" xmlns="http://www.w3.org/2000/svg">
<path d="M3.27406 0.933422C3.19812 0.778011 3.18706 0.6022 3.24279 0.438458C3.29853 0.274715 3.41435 0.142483 3.5691 0.0662195C3.8886 -0.0911139 4.27586 0.0417596 4.43263 0.362515L5.08355 1.69477C5.63427 1.4004 6.26222 1.23324 6.92845 1.23324C7.59468 1.23324 8.22262 1.4004 8.77335 1.69477L9.42427 0.362515C9.58104 0.0417596 9.9684 -0.0912207 10.2878 0.0662195C10.4425 0.142483 10.5584 0.274609 10.6141 0.438458C10.6698 0.6022 10.6588 0.778011 10.5828 0.933315L9.81652 2.50163C10.469 3.20797 10.8686 4.15293 10.8686 5.19007C10.8686 5.30436 10.7764 5.39697 10.6626 5.39697H3.19429C3.0806 5.39697 2.98838 5.30436 2.98838 5.19007C2.98838 4.15293 3.38797 3.20797 4.04038 2.50163L3.27406 0.933422ZM4.06282 0.544628C4.00624 0.428738 3.86606 0.380566 3.75055 0.437496C3.63505 0.494427 3.58718 0.635097 3.64387 0.751202L4.35148 2.19924C4.47124 2.095 4.59749 1.9978 4.72927 1.9085L4.06282 0.544628ZM10.1063 0.437496C9.99084 0.380566 9.85066 0.428631 9.79408 0.544628L9.12763 1.9085C9.25941 1.99791 9.38566 2.095 9.50553 2.19935L10.213 0.751202C10.2698 0.635097 10.2219 0.494427 10.1063 0.437496ZM10.4507 4.98329C10.3437 3.12541 8.80483 1.64682 6.92845 1.64682C5.05206 1.64682 3.51316 3.12541 3.40616 4.98329H10.4507Z" fill="#2C6A8C"/>
<path d="M1.5469 5.86572C2.08433 5.86572 2.52158 6.30482 2.52158 6.84465V10.1535C2.52158 10.6933 2.08433 11.1324 1.5469 11.1324C1.00936 11.1324 0.572123 10.6933 0.572123 10.1535V6.84465C0.572123 6.30482 1.00936 5.86572 1.5469 5.86572ZM0.983944 10.1535C0.983944 10.4652 1.23644 10.7188 1.5469 10.7188C1.85726 10.7188 2.10975 10.4652 2.10975 10.1535V6.84465C2.10975 6.53287 1.85726 6.2793 1.5469 6.2793C1.23644 6.2793 0.983944 6.53287 0.983944 6.84465V10.1535Z" fill="#2C6A8C"/>
<path d="M3.19428 5.86572H4.2651C4.3788 5.86572 4.47101 5.95833 4.47101 6.07251C4.47101 6.1868 4.3788 6.2793 4.2651 6.2793H3.40019V11.1599H4.29254C4.40634 11.1599 4.49845 11.2525 4.49845 11.3667V13.0212C4.49845 13.3329 4.75095 13.5865 5.0613 13.5865C5.37176 13.5865 5.62426 13.3329 5.62426 13.0212V11.3667C5.62426 11.2525 5.71637 11.1599 5.83017 11.1599H8.0267C8.1405 11.1599 8.23261 11.2525 8.23261 11.3667V13.0212C8.23261 13.3329 8.4851 13.5865 8.79556 13.5865C9.10592 13.5865 9.35842 13.3329 9.35842 13.0212V11.3667C9.35842 11.2525 9.45052 11.1599 9.56433 11.1599H10.4567V6.2793H5.26732C5.15351 6.2793 5.0613 6.1868 5.0613 6.07251C5.0613 5.95833 5.15351 5.86572 5.26732 5.86572H10.6626C10.7764 5.86572 10.8685 5.95833 10.8685 6.07251V11.3667C10.8685 11.481 10.7764 11.5735 10.6626 11.5735H9.77024V13.0212C9.77024 13.561 9.333 14.0001 8.79556 14.0001C8.25803 14.0001 7.82078 13.561 7.82078 13.0212V11.5735H6.03608V13.0212C6.03608 13.561 5.59884 14.0001 5.0613 14.0001C4.52387 14.0001 4.08663 13.561 4.08663 13.0212V11.5735H3.19428C3.08047 11.5735 2.98837 11.481 2.98837 11.3667V6.07251C2.98837 5.95833 3.08058 5.86572 3.19428 5.86572Z" fill="#2C6A8C"/>
<path d="M12.31 5.86572C12.8475 5.86572 13.2848 6.30482 13.2848 6.84465V10.1535C13.2848 10.6933 12.8475 11.1324 12.31 11.1324C11.7725 11.1324 11.3353 10.6933 11.3353 10.1535V6.84465C11.3353 6.30482 11.7725 5.86572 12.31 5.86572ZM11.7471 10.1535C11.7471 10.4652 11.9996 10.7188 12.31 10.7188C12.6204 10.7188 12.8729 10.4652 12.8729 10.1535V6.84465C12.8729 6.53287 12.6204 6.2793 12.31 6.2793C11.9996 6.2793 11.7471 6.53287 11.7471 6.84465V10.1535Z" fill="#2C6A8C"/>
<path d="M8.68571 3.21851C9.04148 3.21851 9.33099 3.50925 9.33099 3.86653C9.33099 4.22382 9.04148 4.51456 8.68571 4.51456C8.32994 4.51456 8.04043 4.22382 8.04043 3.86653C8.04043 3.50925 8.32994 3.21851 8.68571 3.21851ZM8.68571 4.10088C8.81441 4.10088 8.91907 3.99577 8.91907 3.86653C8.91907 3.73729 8.81441 3.63219 8.68571 3.63219C8.55702 3.63219 8.45236 3.73729 8.45236 3.86653C8.45236 3.99577 8.55702 4.10088 8.68571 4.10088Z" fill="#2C6A8C"/>
<path d="M5.17119 3.21851C5.52696 3.21851 5.81647 3.50925 5.81647 3.86653C5.81647 4.22382 5.52696 4.51456 5.17119 4.51456C4.81542 4.51456 4.52591 4.22382 4.52591 3.86653C4.52591 3.50925 4.81542 3.21851 5.17119 3.21851ZM5.17119 4.10088C5.29988 4.10088 5.40454 3.99577 5.40454 3.86653C5.40454 3.73729 5.29988 3.63219 5.17119 3.63219C5.04249 3.63219 4.93784 3.73729 4.93784 3.86653C4.93784 3.99577 5.04249 4.10088 5.17119 4.10088Z" fill="#2C6A8C"/>
</svg>
