<svg width="20" height="16" viewBox="0 0 20 16" fill="none" xmlns="http://www.w3.org/2000/svg">
<path d="M1.17188 0.916748H0V12.5835H1.17188V0.916748Z" fill="#2C6A8C"/>
<path d="M5.85938 0.929688H2.35352V12.5832H5.85938V0.929688Z" fill="#2C6A8C"/>
<path d="M17.6367 0.929688H14.1309V12.5832H17.6367V0.929688Z" fill="#2C6A8C"/>
<path d="M8.23242 0.916748H7.06055V12.5835H8.23242V0.916748Z" fill="#2C6A8C"/>
<path d="M10.5859 0.916748H9.41406V12.5835H10.5859V0.916748Z" fill="#2C6A8C"/>
<path d="M12.9395 0.916748H11.7676V12.5835H12.9395V0.916748Z" fill="#2C6A8C"/>
<path d="M20 0.916748H18.8281V12.5835H20V0.916748Z" fill="#2C6A8C"/>
<path d="M1.17188 13.9114H0V15.0833H1.17188V13.9114Z" fill="#2C6A8C"/>
<path d="M5.87891 13.9114H4.70703V15.0833H5.87891V13.9114Z" fill="#2C6A8C"/>
<path d="M8.23242 13.9114H7.06055V15.0833H8.23242V13.9114Z" fill="#2C6A8C"/>
<path d="M12.9395 13.9114H11.7676V15.0833H12.9395V13.9114Z" fill="#2C6A8C"/>
<path d="M17.6465 13.9114H16.4746V15.0833H17.6465V13.9114Z" fill="#2C6A8C"/>
<path d="M20 13.9114H18.8281V15.0833H20V13.9114Z" fill="#2C6A8C"/>
</svg>
