<svg width="26" height="26" viewBox="0 0 26 26" fill="none" xmlns="http://www.w3.org/2000/svg">
<path d="M8.55865 19.1096C6.8483 19.1096 5.46191 20.496 5.46191 22.2064C5.46191 23.9165 6.8483 25.3029 8.55865 25.3029C10.2688 25.3029 11.6552 23.9165 11.6552 22.2064C11.6534 20.4969 10.2681 19.1114 8.55865 19.1096ZM8.55865 24.1644C7.47711 24.1644 6.60037 23.2877 6.60037 22.2064C6.60037 21.1248 7.47711 20.2481 8.55865 20.2481C9.63996 20.2481 10.5167 21.1248 10.5167 22.2064C10.5167 23.2877 9.63996 24.1644 8.55865 24.1644Z" fill="white"/>
<path d="M25.4363 6.1144H5.33673L4.92693 3.82036C4.67434 2.40819 3.56746 1.30353 2.15484 1.05382L0.669062 0.792113C0.359322 0.736969 0.0638124 0.943536 0.00866846 1.25305C-0.0462532 1.56279 0.160092 1.8583 0.469832 1.91345L1.96117 2.17516C2.90217 2.34193 3.63883 3.07859 3.8056 4.01959L5.82058 15.387C6.0585 16.7472 7.24031 17.7393 8.62113 17.738H20.5749C21.8308 17.7418 22.9399 16.9197 23.3017 15.7172L25.977 6.84861C26.0266 6.67562 25.9953 6.48929 25.8916 6.34209C25.7834 6.19956 25.615 6.11551 25.4363 6.1144ZM22.2143 15.3813C21.9995 16.1035 21.334 16.5975 20.5807 16.5938H8.62691C7.79775 16.596 7.088 15.9994 6.94769 15.182L5.54174 7.24707H24.6734L22.2143 15.3813Z" fill="white"/>
<path d="M20.5124 19.1096C18.8021 19.1096 17.4157 20.496 17.4157 22.2064C17.4157 23.9165 18.8021 25.3029 20.5124 25.3029C22.2226 25.3029 23.609 23.9165 23.609 22.2064C23.6072 20.4969 22.2219 19.1114 20.5124 19.1096ZM20.5124 24.1644C19.4309 24.1644 18.5542 23.2877 18.5542 22.2064C18.5542 21.1248 19.4309 20.2481 20.5124 20.2481C21.5938 20.2481 22.4705 21.1248 22.4705 22.2064C22.4705 23.2877 21.5938 24.1644 20.5124 24.1644Z" fill="white"/>
</svg>
