<svg width="11" height="12" viewBox="0 0 11 12" fill="none" xmlns="http://www.w3.org/2000/svg">
<path d="M5.46632 0.644287C2.45224 0.644287 0 3.09653 0 6.11061C0 9.12469 2.45224 11.5769 5.46632 11.5769C8.4804 11.5769 10.9326 9.12469 10.9326 6.11061C10.9326 3.09653 8.4804 0.644287 5.46632 0.644287ZM5.46632 10.8936C2.82891 10.8936 0.683293 8.74802 0.683293 6.11061C0.683293 3.4732 2.82891 1.32758 5.46632 1.32758C8.10373 1.32758 10.2493 3.4732 10.2493 6.11061C10.2493 8.74802 8.10373 10.8936 5.46632 10.8936Z" fill="#2C6A8C"/>
<path d="M5.80796 2.69411H5.12466V6.25202L7.27462 8.40198L7.75773 7.91887L5.80796 5.96909V2.69411Z" fill="#2C6A8C"/>
</svg>
