<svg width="20" height="12" viewBox="0 0 20 12" fill="none" xmlns="http://www.w3.org/2000/svg">
<path d="M19.9259 5.76333C19.7684 5.53415 15.9834 0.166565 9.99995 0.166565C4.86569 0.166565 0.29062 5.50333 0.0981168 5.73083C-0.0327056 5.88583 -0.0327056 6.11334 0.0981168 6.26916C0.29062 6.49666 4.86569 11.8334 9.99995 11.8334C15.1342 11.8334 19.7092 6.49666 19.9017 6.26916C20.0226 6.12584 20.0334 5.91833 19.9259 5.76333ZM9.99995 11.0001C5.88407 11.0001 1.97065 7.07503 0.97649 6.00002C1.96901 4.92418 5.87825 0.999937 9.99995 0.999937C14.8158 0.999937 18.2151 4.91918 19.0451 5.97752C18.0867 7.01835 14.1508 11.0001 9.99995 11.0001Z" fill="#2C6A8C"/>
<path d="M10 2.66656C8.16166 2.66656 6.66663 4.16159 6.66663 5.99995C6.66663 7.83831 8.16166 9.33334 10 9.33334C11.8384 9.33334 13.3334 7.83831 13.3334 5.99995C13.3334 4.16159 11.8384 2.66656 10 2.66656ZM10 8.50004C8.62167 8.50004 7.49996 7.37834 7.49996 5.99999C7.49996 4.62164 8.62167 3.49994 10 3.49994C11.3784 3.49994 12.5001 4.62164 12.5001 5.99999C12.5001 7.37834 11.3784 8.50004 10 8.50004Z" fill="#2C6A8C"/>
</svg>
