<svg width="22" height="22" viewBox="0 0 22 22" fill="none" xmlns="http://www.w3.org/2000/svg">
<g clip-path="url(#clip0)">
<path d="M17.5998 0H4.3998C3.7764 0 3.2998 0.476595 3.2998 1.1V20.9C3.2998 21.5234 3.7764 22 4.3998 22H14.4464L18.6998 17.7466V1.1C18.6998 0.476595 18.2232 0 17.5998 0V0ZM17.9665 17.4534L14.6665 20.7534V18.3333C14.6665 18.1133 14.8131 17.9667 15.0331 17.9667H16.8665V17.2333H15.0331C14.4097 17.2333 13.9331 17.7099 13.9331 18.3333V21.2667H4.3998C4.17977 21.2667 4.03314 21.12 4.03314 20.9V1.1C4.03314 0.879964 4.17977 0.733333 4.3998 0.733333H17.5998C17.8198 0.733333 17.9665 0.879964 17.9665 1.1V17.4534Z" fill="#2C6A8C"/>
<path d="M8.7998 2.19995H13.1998V2.93328H8.7998V2.19995Z" fill="#2C6A8C"/>
<path d="M6.2334 12.1H15.7667V12.8333H6.2334V12.1Z" fill="#2C6A8C"/>
<path d="M6.2334 13.9333H15.7667V14.6667H6.2334V13.9333Z" fill="#2C6A8C"/>
<path d="M6.2334 15.7667H15.7667V16.5001H6.2334V15.7667Z" fill="#2C6A8C"/>
<path d="M6.2334 17.6H12.4667V18.3333H6.2334V17.6Z" fill="#2C6A8C"/>
<path d="M14.3002 9.7534V5.28L11.0002 3.63L7.7002 5.28V9.7534L11.0002 11.4034L14.3002 9.7534ZM11.0002 6.8933L10.0835 6.3433L12.2835 5.09667L13.2002 5.53674L11.0002 6.8933ZM11.4768 4.6933L9.3869 5.90341L8.8002 5.53674L11.0002 4.43674L11.4768 4.6933ZM8.43353 6.15996L10.6335 7.5167V9.64329H11.3669V7.5167L13.5669 6.15996V9.31333L11.0002 10.5967L8.43353 9.31333V6.15996Z" fill="#2C6A8C"/>
</g>
<defs>
<clipPath id="clip0">
<rect width="22" height="22" fill="white"/>
</clipPath>
</defs>
</svg>
