<svg width="11" height="11" viewBox="0 0 11 11" fill="none" xmlns="http://www.w3.org/2000/svg">
<path d="M10.2693 8.28272e-07H0.46222C0.289249 -0.000326355 0.130675 0.0963013 0.051606 0.250186C-0.0285536 0.406142 -0.0144848 0.593944 0.0879232 0.736377L3.68082 5.79766C3.68202 5.7994 3.68333 5.80104 3.68453 5.80278C3.81507 5.97902 3.88564 6.19246 3.88607 6.41189V10.5383C3.88531 10.6606 3.9333 10.7779 4.01945 10.8646C4.10561 10.9513 4.22274 11 4.34489 11C4.40706 11 4.46846 10.9875 4.52582 10.9637L6.54476 10.1939C6.72569 10.1387 6.84576 9.96802 6.84576 9.76244V6.41189C6.84609 6.19256 6.91676 5.97902 7.0472 5.80278C7.0484 5.80104 7.04971 5.7994 7.05091 5.79766L10.6437 0.736159C10.7461 0.593835 10.7602 0.406142 10.68 0.250186C10.6009 0.0963013 10.4424 -0.000326355 10.2693 8.28272e-07ZM6.597 5.472C6.39632 5.74433 6.28781 6.07358 6.28715 6.41189V9.69461L4.44446 10.3972V6.41189C4.44381 6.07358 4.33529 5.74433 4.13451 5.472L0.646423 0.558391H10.0852L6.597 5.472Z" fill="#2C6A8C"/>
</svg>
