<svg width="19" height="19" viewBox="0 0 19 19" fill="none" xmlns="http://www.w3.org/2000/svg">
<path d="M18.6634 8.1398C18.4664 7.84235 18.1678 7.63737 17.8206 7.55968C18.0446 7.13132 18.0355 6.59686 17.7502 6.16619C17.5472 5.8596 17.2411 5.66159 16.9078 5.58665C16.9673 5.47329 17.0112 5.35094 17.0374 5.22193C17.1102 4.86316 17.0392 4.49757 16.8369 4.19243C16.6399 3.89483 16.3413 3.68986 15.9942 3.61231C16.2181 3.18396 16.209 2.64949 15.9237 2.21868C15.5067 1.58883 14.6546 1.41561 14.0246 1.8328L12.6605 2.73618C11.9334 2.3674 11.1601 2.10575 10.3574 1.95674C10.1038 1.57158 9.80877 1.21353 9.47855 0.893465L8.91423 0.346537C8.50095 -0.054129 7.85284 -0.114287 7.37303 0.203607C6.80537 0.579485 6.6494 1.34719 7.02527 1.91484C7.04006 1.93731 7.05455 1.95993 7.06891 1.98254C5.21909 2.35682 3.53322 3.33848 2.28542 4.77691C0.931359 6.33797 0.185547 8.33723 0.185547 10.4064C0.185547 10.803 0.212654 11.2003 0.266289 11.5871C0.679566 14.5936 2.68231 17.1846 5.49277 18.3491C6.53502 18.7811 7.64091 19.0002 8.77927 19.0002C10.5821 19.0002 12.3079 18.4481 13.7701 17.4037C15.2005 16.3817 16.2707 14.9714 16.8652 13.3253C16.9207 13.1719 16.8411 13.0024 16.6878 12.9471C16.5343 12.8917 16.365 12.9711 16.3096 13.1246C15.756 14.6576 14.7591 15.9709 13.4265 16.9228C12.0652 17.8954 10.4582 18.4094 8.77927 18.4094C7.91126 18.4094 7.06369 18.2724 6.2525 18.0022L8.6562 16.4104C8.65635 16.4103 8.65649 16.4103 8.65664 16.4101C8.65678 16.4101 8.65678 16.41 8.65693 16.4098L10.6546 15.0869H10.6547C10.8341 14.9681 10.9566 14.7866 10.9995 14.5757C11.0424 14.3648 11.0006 14.1496 10.8818 13.9703L10.8554 13.9303L11.2434 13.6733C11.5203 13.4899 11.8533 13.418 12.1812 13.4707C12.6559 13.5469 13.138 13.4425 13.5387 13.1771L16.7574 11.0456C16.7353 11.3248 16.6991 11.6024 16.6485 11.8754C16.6186 12.0359 16.7246 12.1901 16.8851 12.2198C16.9032 12.2233 16.9215 12.2249 16.9393 12.2249C17.0789 12.2249 17.203 12.1254 17.2293 11.9832C17.3112 11.5427 17.3584 11.0914 17.3705 10.6396L18.2775 10.0389C18.5827 9.83683 18.791 9.52792 18.8638 9.1693C18.9367 8.81052 18.8655 8.44494 18.6634 8.1398ZM12.0869 3.11597L11.1843 3.71378L11.0066 3.23498C10.9323 3.03523 10.8473 2.83939 10.753 2.64775C11.211 2.76387 11.6568 2.92042 12.0869 3.11597ZM2.73174 5.16409C3.93099 3.78162 5.56453 2.85229 7.35158 2.53005C7.6383 3.22469 7.70701 4.0008 7.53567 4.74052L6.81537 7.85235C6.70216 7.73145 6.55517 7.6481 6.38963 7.61447C6.17857 7.57142 5.9636 7.61331 5.78428 7.73218L3.74399 9.08319C3.74385 9.08319 3.74385 9.08319 3.7437 9.08334C3.7437 9.08334 3.74356 9.08334 3.74356 9.08348L0.800896 11.0322C0.784806 10.8246 0.776398 10.6154 0.776398 10.4064C0.776398 8.47958 1.47089 6.61774 2.73174 5.16409ZM10.4205 14.4578C10.409 14.5141 10.3763 14.5626 10.3283 14.5944H10.3284L8.57387 15.7562L5.31737 10.8997C5.22648 10.7641 5.04296 10.728 4.90743 10.8189C4.77204 10.9098 4.7358 11.0932 4.82669 11.2287L8.08115 16.0825L5.57641 17.7413C3.08747 16.6526 1.30637 14.3536 0.878159 11.6784L3.8243 9.73377L4.16336 10.2397C4.22047 10.3246 4.31382 10.3706 4.40906 10.3706C4.46559 10.3706 4.52285 10.3545 4.5733 10.3206C4.70884 10.2297 4.74507 10.0462 4.65419 9.91061L4.31745 9.40833L6.11058 8.22475C6.15828 8.193 6.21553 8.18198 6.27178 8.19344C6.32802 8.20489 6.37658 8.23765 6.40833 8.28548L10.3892 14.2966C10.4208 14.3443 10.4319 14.4016 10.4205 14.4578ZM18.2848 9.05159C18.2433 9.25569 18.1249 9.43138 17.9512 9.54633L16.9143 10.233C16.9141 10.2331 16.9138 10.2334 16.9133 10.2336L13.2124 12.6845C12.9355 12.8679 12.6026 12.94 12.2747 12.8872C11.8001 12.8111 11.3179 12.9153 10.9171 13.1807L10.5291 13.4377L7.26866 8.51452L8.11145 4.87388C8.32845 3.936 8.21408 2.94811 7.80066 2.08749C7.79689 2.0785 7.79283 2.0698 7.78819 2.06125C7.70875 1.89861 7.61859 1.74075 7.51784 1.58854C7.32186 1.29254 7.40318 0.892306 7.69933 0.696177C7.94953 0.530489 8.28757 0.5618 8.50298 0.770685L9.06731 1.31776C9.67773 1.90963 10.1568 2.6437 10.4525 3.44068L10.7598 4.26854C10.7604 4.27013 10.761 4.27144 10.7616 4.27289C10.7623 4.27477 10.7632 4.2768 10.7639 4.27868C10.7661 4.28376 10.7681 4.2884 10.7703 4.29231C10.7762 4.30478 10.7827 4.3171 10.7906 4.32884C10.8807 4.46496 11.064 4.50221 11.1999 4.41205L14.3509 2.32551C14.7092 2.08821 15.1938 2.18664 15.4311 2.54498C15.6684 2.90332 15.57 3.38791 15.2117 3.62521L14.9381 3.80641C14.9381 3.80641 14.938 3.80641 14.9378 3.80655L14.3277 4.2107C14.3268 4.21128 14.3263 4.21186 14.3254 4.21229C14.3219 4.21476 14.3186 4.21708 14.3158 4.2194C14.1897 4.31202 14.1571 4.48815 14.2445 4.62006C14.3345 4.75618 14.5179 4.79343 14.654 4.70327L15.2646 4.29883C15.4381 4.18417 15.6458 4.14373 15.8498 4.18519C16.0537 4.22664 16.2296 4.34507 16.3444 4.51873C16.4593 4.69225 16.4999 4.90027 16.4585 5.10422C16.417 5.30832 16.2986 5.48401 16.1249 5.59897L15.2409 6.18445C15.1048 6.27447 15.0676 6.4577 15.1577 6.59382C15.2146 6.67963 15.3085 6.72616 15.4043 6.72616C15.4603 6.72616 15.5169 6.71022 15.5671 6.67702L15.7039 6.58642L16.1774 6.27288C16.5359 6.03558 17.0203 6.13401 17.2576 6.49235C17.4949 6.85083 17.3965 7.33528 17.0381 7.57272L16.5966 7.8651C16.5943 7.86655 16.592 7.86815 16.5896 7.86974L16.1542 8.15807C16.0181 8.24809 15.9808 8.43146 16.071 8.56757C16.1278 8.65339 16.2217 8.69992 16.3176 8.69992C16.3735 8.69992 16.4302 8.68398 16.4803 8.65078L16.6172 8.56018C16.6172 8.56018 16.6172 8.56004 16.6173 8.56004L17.0908 8.24664C17.2643 8.13168 17.4721 8.09109 17.6763 8.1327C17.8804 8.17401 18.056 8.29259 18.171 8.4661C18.2858 8.63962 18.3262 8.84763 18.2848 9.05159Z" fill="#2C6A8C"/>
</svg>
