<svg width="18" height="18" viewBox="0 0 18 18" fill="none" xmlns="http://www.w3.org/2000/svg">
<path d="M9 0C13.9743 0 18 4.02528 18 9C18 13.9743 13.9747 18 9 18C4.02574 18 0 13.9747 0 9C0 4.02574 4.02528 0 9 0ZM9 16.8C13.3009 16.8 16.8 13.3009 16.8 9C16.8 4.69905 13.3009 1.19999 9 1.19999C4.69909 1.19999 1.19999 4.69909 1.19999 9C1.19999 13.3009 4.69909 16.8 9 16.8Z" fill="#2C6A8C"/>
<path d="M9.00009 7.375C9.33143 7.375 9.6001 7.64363 9.6001 7.97501V13.0364C9.6001 13.3678 9.33147 13.6364 9.00009 13.6364C8.6687 13.6364 8.40007 13.3678 8.40007 13.0364V7.97498C8.40011 7.64359 8.66874 7.375 9.00009 7.375Z" fill="#2C6A8C"/>
<path d="M8.99996 4.36377C9.66164 4.36377 10.2 4.90208 10.2 5.56376C10.2 6.22544 9.66164 6.76375 8.99996 6.76375C8.33829 6.76375 7.79998 6.22544 7.79998 5.56376C7.79998 4.90208 8.33829 4.36377 8.99996 4.36377Z" fill="#2C6A8C"/>
</svg>
