<svg width="34" height="28" viewBox="0 0 34 28" fill="none" xmlns="http://www.w3.org/2000/svg">
<path d="M32.3 0.966675H1.7C0.761149 0.966675 0 1.72776 0 2.66667V25.3333C0 26.2722 0.761082 27.0333 1.7 27.0333H32.3C33.2388 27.0333 34 26.2722 34 25.3333V2.66667C34 1.72782 33.2389 0.966675 32.3 0.966675ZM32.8666 25.3334C32.8666 25.6464 32.613 25.9 32.3 25.9H1.7C1.38703 25.9 1.13336 25.6464 1.13336 25.3334V2.66667C1.13336 2.3537 1.38703 2.10003 1.7 2.10003H32.3C32.613 2.10003 32.8666 2.3537 32.8666 2.66667V25.3334Z" fill="#2C6A8C"/>
<path d="M31.216 3.23546C31.0662 3.22238 30.9174 3.26933 30.8023 3.36602L17.7292 14.348C17.3076 14.7024 16.6922 14.7024 16.2706 14.348L3.19769 3.36595C3.04263 3.2358 2.82987 3.19821 2.63961 3.26741C2.44936 3.3366 2.31044 3.50209 2.27524 3.7015C2.24005 3.90092 2.31389 4.10393 2.46895 4.23408L15.542 15.2155C16.3845 15.9249 17.6154 15.9249 18.458 15.2155L31.531 4.23415C31.6461 4.13753 31.7181 3.99914 31.7312 3.84939C31.7443 3.69964 31.6973 3.55083 31.6006 3.43575C31.5041 3.32053 31.3657 3.24855 31.216 3.23546Z" fill="#2C6A8C"/>
<path d="M10.8989 15.1376C10.6982 15.0929 10.4892 15.1602 10.3524 15.3136L2.41904 23.8136C2.27547 23.9606 2.22275 24.1739 2.28132 24.3709C2.33989 24.5679 2.50052 24.7177 2.70107 24.7625C2.90168 24.8073 3.11073 24.7399 3.24753 24.5865L11.1809 16.0865C11.3245 15.9395 11.3772 15.7262 11.3186 15.5292C11.26 15.3323 11.0995 15.1824 10.8989 15.1376Z" fill="#2C6A8C"/>
<path d="M23.6474 15.3136C23.5107 15.1602 23.3016 15.0929 23.101 15.1376C22.9004 15.1824 22.7398 15.3323 22.6812 15.5292C22.6226 15.7263 22.6754 15.9395 22.8189 16.0865L30.7523 24.5865C30.9675 24.8069 31.3191 24.8151 31.5443 24.605C31.7695 24.3949 31.7857 24.0435 31.5808 23.8136L23.6474 15.3136Z" fill="#2C6A8C"/>
</svg>
