<svg width="32" height="32" viewBox="0 0 32 32" fill="none" xmlns="http://www.w3.org/2000/svg">
<path d="M10.4985 21.9047C11.8163 23.7628 13.1321 25.4247 14.0041 26.4951C14.131 26.6508 14.25 26.7953 14.3652 26.9345H11.7337C11.4392 26.9345 11.2004 27.1733 11.2004 27.4678C11.2004 27.7624 11.4392 28.0011 11.7337 28.0011H20.267C20.5616 28.0011 20.8003 27.7624 20.8003 27.4678C20.8003 27.1733 20.5616 26.9345 20.267 26.9345H17.6356C17.7507 26.7953 17.8697 26.6508 17.9972 26.4951C18.8686 25.4284 20.1839 23.7628 21.5023 21.9047C22.8103 20.0981 23.9877 18.2005 25.0255 16.2263C26.1145 14.0876 26.6671 12.3121 26.6671 10.9489C26.6707 8.11637 25.5467 5.39886 23.5433 3.39635C23.4095 3.2576 23.2113 3.20185 23.0248 3.25054C22.8383 3.29923 22.6925 3.44473 22.6436 3.63117C22.5946 3.8176 22.6501 4.01592 22.7886 4.14992C24.5919 5.95268 25.6036 8.399 25.6004 10.9489C25.6004 12.1425 25.0873 13.7553 24.0751 15.742C23.0608 17.6704 21.9101 19.524 20.6319 21.2887C19.3316 23.1228 18.0319 24.766 17.1706 25.822C16.8842 26.1729 16.6266 26.4833 16.4068 26.7458C16.3042 26.8629 16.1561 26.93 16.0004 26.93C15.8447 26.93 15.6966 26.8628 15.594 26.7458C15.3743 26.4834 15.1167 26.1729 14.8303 25.822C13.969 24.7666 12.6692 23.1233 11.369 21.2887C10.0908 19.524 8.94008 17.6704 7.92577 15.742C6.91245 13.7553 6.40045 12.1425 6.40045 10.9489C6.40014 7.0858 8.7104 3.59717 12.2672 2.08966C14.657 1.08753 17.3493 1.08753 19.7392 2.08966C19.9147 2.16404 20.1165 2.13922 20.2687 2.02441C20.4209 1.90966 20.5003 1.72241 20.4769 1.53322C20.4536 1.34403 20.3312 1.18166 20.1557 1.10728C14.7245 -1.18348 8.46465 1.36116 6.1722 6.79155C5.61626 8.10693 5.33113 9.52088 5.33382 10.9489C5.33382 12.3121 5.88639 14.0876 6.97545 16.2289C8.01308 18.2022 9.19052 20.099 10.4985 21.9047Z" fill="white"/>
<path d="M16.0003 6.1345C16.2949 6.1345 16.5336 5.89575 16.5336 5.60119C16.5336 5.30662 16.2949 5.06787 16.0003 5.06787C13.4559 5.06781 11.2658 6.86519 10.7693 9.3607C10.2729 11.8562 11.6085 14.3548 13.9592 15.3286C16.3099 16.3024 19.0211 15.4799 20.4347 13.3643C21.8483 11.2488 21.5706 8.4292 19.7715 6.63C19.6376 6.49138 19.4393 6.43575 19.2528 6.48456C19.0664 6.53338 18.9208 6.679 18.8719 6.86544C18.8231 7.05194 18.8788 7.25019 19.0174 7.38413C20.4568 8.82345 20.6789 11.079 19.5481 12.7715C18.4173 14.464 16.2484 15.122 14.3678 14.3432C12.4872 13.5643 11.4187 11.5654 11.8157 9.56895C12.2127 7.57251 13.9648 6.13456 16.0003 6.1345Z" fill="white"/>
<path d="M31.7996 29.3725L28.5196 23.5058C28.223 22.9845 27.6681 22.6641 27.0684 22.6679H23.2673C22.9727 22.6679 22.734 22.9066 22.734 23.2012C22.734 23.4958 22.9727 23.7345 23.2673 23.7345H27.0684C27.2819 23.7304 27.4811 23.8417 27.5895 24.0257L30.8684 29.8924C30.9577 30.045 30.9558 30.2344 30.8636 30.3852C30.7547 30.5652 30.5577 30.673 30.3473 30.6679H1.65391C1.44379 30.6729 1.24704 30.565 1.13816 30.3852C1.04591 30.2344 1.0441 30.045 1.13335 29.8924L4.4123 24.0257C4.52049 23.8418 4.71949 23.7304 4.9328 23.7345H8.73388C9.02844 23.7345 9.26719 23.4958 9.26719 23.2012C9.26719 22.9066 9.02844 22.6679 8.73388 22.6679H4.93286C4.33286 22.6639 3.77748 22.9843 3.48061 23.5058L0.201096 29.3725C-0.0723429 29.8555 -0.0660304 30.448 0.217658 30.925C0.516534 31.433 1.0646 31.742 1.65391 31.7347H30.3473C30.9365 31.7418 31.4843 31.4329 31.7831 30.925C32.0668 30.4479 32.0731 29.8555 31.7996 29.3725Z" fill="white"/>
<path d="M26.1337 25.3346H24.0004C23.8951 25.3348 23.7921 25.3659 23.7044 25.4242L22.1044 26.4909C21.8593 26.6544 21.7932 26.9856 21.9566 27.2307C22.1201 27.4757 22.4513 27.5419 22.6964 27.3784L24.1604 26.4013H26.1337C26.4283 26.4013 26.667 26.1625 26.667 25.868C26.667 25.5733 26.4283 25.3346 26.1337 25.3346Z" fill="white"/>
<path d="M22.9337 29.0679C22.9337 29.3624 23.1724 29.6012 23.467 29.6012H27.7337C28.0283 29.6012 28.267 29.3624 28.267 29.0679C28.267 28.7733 28.0283 28.5345 27.7337 28.5345H23.467C23.1724 28.5345 22.9337 28.7733 22.9337 29.0679Z" fill="white"/>
<path d="M9.60026 27.4679C9.83539 27.4682 10.043 27.3144 10.1113 27.0894C10.1796 26.8644 10.0925 26.6212 9.89682 26.4908L8.29682 25.4241C8.20894 25.3657 8.10575 25.3345 8.00025 25.3345H5.86693C5.57237 25.3345 5.33362 25.5733 5.33362 25.8678C5.33362 26.1624 5.57243 26.4011 5.86693 26.4011H7.84025L9.30588 27.3782C9.39307 27.4364 9.49551 27.4676 9.60026 27.4679Z" fill="white"/>
<path d="M4.2669 28.5345C3.97233 28.5345 3.73358 28.7733 3.73358 29.0679C3.73358 29.3624 3.97233 29.6012 4.2669 29.6012H8.5336C8.82816 29.6012 9.06692 29.3624 9.06692 29.0679C9.06692 28.7733 8.82816 28.5345 8.5336 28.5345H4.2669Z" fill="white"/>
</svg>
