<svg width="32" height="32" viewBox="0 0 32 32" fill="none" xmlns="http://www.w3.org/2000/svg">
<g clip-path="url(#clip0)">
<path d="M31.1604 24.687L24.6834 20.3676C23.8615 19.8239 22.7597 20.0028 22.1521 20.7787L20.2654 23.2045C20.0229 23.5242 19.5822 23.617 19.2314 23.4221L18.8726 23.2243C17.6829 22.5758 16.2026 21.7685 13.2201 18.7849C10.2376 15.8014 9.42864 14.32 8.78018 13.1324L8.58339 12.7736C8.38586 12.4229 8.47685 11.9802 8.79667 11.7358L11.2208 9.84975C11.9964 9.24203 12.1756 8.14056 11.6325 7.31837L7.31314 0.84146C6.75654 0.0042094 5.63983 -0.247128 4.77814 0.270857L2.06973 1.8978C1.21874 2.3981 0.59439 3.20836 0.327617 4.15878C-0.647675 7.71238 0.0860277 13.8453 9.12044 22.8808C16.3071 30.0669 21.6573 31.9995 25.3346 31.9995C26.1809 32.0031 27.0239 31.893 27.8409 31.6721C28.7915 31.4056 29.6019 30.7812 30.1019 29.93L31.7305 27.2232C32.2492 26.3613 31.998 25.2439 31.1604 24.687ZM30.8116 26.676L29.1868 29.3844C28.8278 29.9988 28.2449 30.4506 27.5603 30.645C24.2798 31.5457 18.5484 30.7997 9.87495 22.1263C1.20155 13.4529 0.455598 7.722 1.35628 4.44093C1.551 3.75553 2.00331 3.17193 2.61846 2.81236L5.32688 1.18753C5.70076 0.962567 6.18544 1.07161 6.42696 1.43493L8.7733 4.9576L10.7426 7.91129C10.9785 8.26792 10.901 8.74591 10.5645 9.00981L8.13983 10.8959C7.40194 11.4601 7.19122 12.481 7.64553 13.2913L7.83807 13.6411C8.51959 14.8911 9.3669 16.446 12.4603 19.5389C15.5537 22.6318 17.1082 23.4792 18.3576 24.1606L18.7079 24.3537C19.5181 24.8079 20.5391 24.5972 21.1033 23.8594L22.9894 21.4347C23.2533 21.0984 23.7311 21.021 24.0879 21.2566L30.5643 25.5759C30.9278 25.8173 31.0369 26.3022 30.8116 26.676Z" fill="url(#paint0_linear)"/>
<path d="M18.1324 5.33612C23.1367 5.34168 27.1921 9.39714 27.1978 14.4015C27.1978 14.696 27.4365 14.9347 27.731 14.9347C28.0255 14.9347 28.2642 14.696 28.2642 14.4015C28.258 8.80836 23.7255 4.27578 18.1324 4.26965C17.8379 4.26965 17.5992 4.50837 17.5992 4.80289C17.5992 5.09741 17.8379 5.33612 18.1324 5.33612Z" fill="url(#paint1_linear)"/>
<path d="M18.1324 8.53558C21.3704 8.53939 23.9944 11.1634 23.9982 14.4014C23.9982 14.6959 24.237 14.9346 24.5315 14.9346C24.826 14.9346 25.0647 14.6959 25.0647 14.4014C25.0603 10.5746 21.9592 7.47349 18.1324 7.46912C17.8379 7.46912 17.5992 7.70783 17.5992 8.00235C17.5992 8.29687 17.8379 8.53558 18.1324 8.53558Z" fill="url(#paint2_linear)"/>
<path d="M18.1324 11.7352C19.6042 11.7369 20.7969 12.9296 20.7987 14.4015C20.7987 14.696 21.0375 14.9347 21.3319 14.9347C21.6264 14.9347 21.8652 14.696 21.8652 14.4015C21.8628 12.3409 20.193 10.671 18.1324 10.6687C17.8379 10.6687 17.5992 10.9074 17.5992 11.2019C17.5992 11.4965 17.8379 11.7352 18.1324 11.7352Z" fill="url(#paint3_linear)"/>
</g>
<defs>
<linearGradient id="paint0_linear" x1="16.0001" y1="0.00183105" x2="16.0001" y2="31.9995" gradientUnits="userSpaceOnUse">
<stop offset="0.338542" stop-color="#2C6A8C"/>
<stop offset="1" stop-color="#454545"/>
</linearGradient>
<linearGradient id="paint1_linear" x1="22.9317" y1="4.26965" x2="22.9317" y2="14.9347" gradientUnits="userSpaceOnUse">
<stop offset="0.338542" stop-color="#2C6A8C"/>
<stop offset="1" stop-color="#454545"/>
</linearGradient>
<linearGradient id="paint2_linear" x1="21.3319" y1="7.46912" x2="21.3319" y2="14.9346" gradientUnits="userSpaceOnUse">
<stop offset="0.338542" stop-color="#2C6A8C"/>
<stop offset="1" stop-color="#454545"/>
</linearGradient>
<linearGradient id="paint3_linear" x1="19.7322" y1="10.6687" x2="19.7322" y2="14.9347" gradientUnits="userSpaceOnUse">
<stop offset="0.338542" stop-color="#2C6A8C"/>
<stop offset="1" stop-color="#454545"/>
</linearGradient>
<clipPath id="clip0">
<rect width="32" height="32" fill="white"/>
</clipPath>
</defs>
</svg>
