<svg width="14" height="10" viewBox="0 0 14 10" fill="none" xmlns="http://www.w3.org/2000/svg">
<path d="M1.71429 0.428711H0.285715C0.127914 0.428711 0 0.556624 0 0.714424V2.14299C0 2.30079 0.127914 2.42871 0.285715 2.42871C0.443516 2.42871 0.57143 2.30079 0.57143 2.14299V1.00014H1.71429C1.87209 1.00014 2 0.872225 2 0.714424C2 0.556624 1.87209 0.428711 1.71429 0.428711Z" fill="#2C6A8C"/>
<path d="M13.7143 0.428711H12.2857C12.1279 0.428711 12 0.556624 12 0.714424C12 0.872225 12.1279 1.00014 12.2857 1.00014H13.4286V2.14299C13.4286 2.30079 13.5565 2.42871 13.7143 2.42871C13.8721 2.42871 14 2.30079 14 2.14299V0.714424C14 0.556624 13.8721 0.428711 13.7143 0.428711Z" fill="#2C6A8C"/>
<path d="M13.7143 7.57153C13.5565 7.57153 13.4286 7.69945 13.4286 7.85725V9.00011H12.2857C12.1279 9.00011 12 9.12802 12 9.28582C12 9.44362 12.1279 9.57154 12.2857 9.57154H13.7143C13.8721 9.57154 14 9.44362 14 9.28582V7.85725C14 7.69945 13.8721 7.57153 13.7143 7.57153Z" fill="#2C6A8C"/>
<path d="M1.71429 9.00011H0.57143V7.85725C0.57143 7.69945 0.443516 7.57153 0.285715 7.57153C0.127914 7.57153 0 7.69945 0 7.85725V9.28582C0 9.44362 0.127914 9.57154 0.285715 9.57154H1.71429C1.87209 9.57154 2 9.44362 2 9.28582C2 9.12802 1.87209 9.00011 1.71429 9.00011Z" fill="#2C6A8C"/>
<path d="M12.8571 8.14322V1.85749C12.8571 1.69969 12.7292 1.57178 12.5714 1.57178C12.4136 1.57178 12.2857 1.69969 12.2857 1.85749V8.14322C12.2857 8.30102 12.4136 8.42893 12.5714 8.42893C12.7292 8.42893 12.8571 8.30102 12.8571 8.14322Z" fill="#2C6A8C"/>
<path d="M11.1786 1.57178C11.0208 1.57178 10.8929 1.69969 10.8929 1.85749V6.79093C10.8929 6.94873 11.0208 7.07665 11.1786 7.07665C11.3364 7.07665 11.4643 6.94873 11.4643 6.79093V1.85749C11.4643 1.69969 11.3364 1.57178 11.1786 1.57178Z" fill="#2C6A8C"/>
<path d="M11.1786 7.79077C11.0208 7.79077 10.8929 7.91869 10.8929 8.07649V8.14307C10.8929 8.30087 11.0208 8.42878 11.1786 8.42878C11.3364 8.42878 11.4643 8.30087 11.4643 8.14307V8.07649C11.4643 7.91869 11.3364 7.79077 11.1786 7.79077Z" fill="#2C6A8C"/>
<path d="M9.78572 1.57178C9.62791 1.57178 9.5 1.69969 9.5 1.85749V6.79093C9.5 6.94873 9.62791 7.07665 9.78572 7.07665C9.94352 7.07665 10.0714 6.94873 10.0714 6.79093V1.85749C10.0714 1.69969 9.94352 1.57178 9.78572 1.57178Z" fill="#2C6A8C"/>
<path d="M9.78572 7.79077C9.62791 7.79077 9.5 7.91869 9.5 8.07649V8.14307C9.5 8.30087 9.62791 8.42878 9.78572 8.42878C9.94352 8.42878 10.0714 8.30087 10.0714 8.14307V8.07649C10.0714 7.91869 9.94352 7.79077 9.78572 7.79077Z" fill="#2C6A8C"/>
<path d="M8.39286 1.57178C8.23506 1.57178 8.10715 1.69969 8.10715 1.85749V6.79093C8.10715 6.94873 8.23506 7.07665 8.39286 7.07665C8.55066 7.07665 8.67858 6.94873 8.67858 6.79093V1.85749C8.67858 1.69969 8.55066 1.57178 8.39286 1.57178Z" fill="#2C6A8C"/>
<path d="M8.39286 7.79077C8.23506 7.79077 8.10715 7.91869 8.10715 8.07649V8.14307C8.10715 8.30087 8.23506 8.42878 8.39286 8.42878C8.55066 8.42878 8.67858 8.30087 8.67858 8.14307V8.07649C8.67858 7.91869 8.55066 7.79077 8.39286 7.79077Z" fill="#2C6A8C"/>
<path d="M7.00001 1.57178C6.84221 1.57178 6.71429 1.69969 6.71429 1.85749V6.79093C6.71429 6.94873 6.84221 7.07665 7.00001 7.07665C7.15781 7.07665 7.28573 6.94873 7.28573 6.79093V1.85749C7.28573 1.69969 7.15781 1.57178 7.00001 1.57178Z" fill="#2C6A8C"/>
<path d="M7.00001 7.79077C6.84221 7.79077 6.71429 7.91869 6.71429 8.07649V8.14307C6.71429 8.30087 6.84221 8.42878 7.00001 8.42878C7.15781 8.42878 7.28573 8.30087 7.28573 8.14307V8.07649C7.28573 7.91869 7.15781 7.79077 7.00001 7.79077Z" fill="#2C6A8C"/>
<path d="M5.60713 1.57178C5.44933 1.57178 5.32141 1.69969 5.32141 1.85749V6.79093C5.32141 6.94873 5.44933 7.07665 5.60713 7.07665C5.76493 7.07665 5.89284 6.94873 5.89284 6.79093V1.85749C5.89284 1.69969 5.76493 1.57178 5.60713 1.57178Z" fill="#2C6A8C"/>
<path d="M5.60713 7.79077C5.44933 7.79077 5.32141 7.91869 5.32141 8.07649V8.14307C5.32141 8.30087 5.44933 8.42878 5.60713 8.42878C5.76493 8.42878 5.89284 8.30087 5.89284 8.14307V8.07649C5.89284 7.91869 5.76493 7.79077 5.60713 7.79077Z" fill="#2C6A8C"/>
<path d="M4.21427 1.57178C4.05647 1.57178 3.92856 1.69969 3.92856 1.85749V6.79093C3.92856 6.94873 4.05647 7.07665 4.21427 7.07665C4.37207 7.07665 4.49999 6.94873 4.49999 6.79093V1.85749C4.49999 1.69969 4.37207 1.57178 4.21427 1.57178Z" fill="#2C6A8C"/>
<path d="M4.21427 7.79077C4.05647 7.79077 3.92856 7.91869 3.92856 8.07649V8.14307C3.92856 8.30087 4.05647 8.42878 4.21427 8.42878C4.37207 8.42878 4.49999 8.30087 4.49999 8.14307V8.07649C4.49999 7.91869 4.37207 7.79077 4.21427 7.79077Z" fill="#2C6A8C"/>
<path d="M2.82142 1.57178C2.66362 1.57178 2.53571 1.69969 2.53571 1.85749V6.79093C2.53571 6.94873 2.66362 7.07665 2.82142 7.07665C2.97922 7.07665 3.10714 6.94873 3.10714 6.79093V1.85749C3.10714 1.69969 2.97922 1.57178 2.82142 1.57178Z" fill="#2C6A8C"/>
<path d="M2.82142 7.79077C2.66362 7.79077 2.53571 7.91869 2.53571 8.07649V8.14307C2.53571 8.30087 2.66362 8.42878 2.82142 8.42878C2.97922 8.42878 3.10714 8.30087 3.10714 8.14307V8.07649C3.10714 7.91869 2.97922 7.79077 2.82142 7.79077Z" fill="#2C6A8C"/>
<path d="M1.71428 8.14322V1.85749C1.71428 1.69969 1.58637 1.57178 1.42857 1.57178C1.27077 1.57178 1.14285 1.69969 1.14285 1.85749V8.14322C1.14285 8.30102 1.27077 8.42893 1.42857 8.42893C1.58637 8.42893 1.71428 8.30102 1.71428 8.14322Z" fill="#2C6A8C"/>
</svg>
