<svg width="86" height="70" viewBox="0 0 86 70" fill="none" xmlns="http://www.w3.org/2000/svg">
<path d="M80.2758 21.3412H53.7778L48.6018 6.00521C48.4571 3.04056 46.0002 0.673218 43.0001 0.673218C40.0002 0.673218 37.5431 3.04056 37.3983 6.00504L32.2221 21.3409H5.7242C2.5679 21.3412 0 23.909 0 27.0654V63.6026C0 66.759 2.5679 69.3268 5.7242 69.3268H11.8404C12.7011 69.3268 13.3985 68.6292 13.3985 67.7687C13.3985 66.9082 12.7011 66.2106 11.8404 66.2106H5.7242C4.28605 66.2106 3.11598 65.0406 3.11598 63.6024V27.0654C3.11598 25.6273 4.28605 24.4572 5.7242 24.4572H33.3357C33.3374 24.4572 33.339 24.4577 33.3407 24.4577C33.3424 24.4577 33.3443 24.4572 33.3459 24.4572H52.6539C52.6556 24.4572 52.6574 24.4577 52.6591 24.4577C52.6608 24.4577 52.6625 24.4572 52.6642 24.4572H80.2758C81.714 24.4572 82.884 25.6273 82.884 27.0654V63.6026C82.884 65.0407 81.714 66.2108 80.2758 66.2108H16.8262C15.9656 66.2108 15.2682 66.9084 15.2682 67.7689C15.2682 68.6294 15.9656 69.3269 16.8262 69.3269H80.2758C83.4319 69.3269 86 66.759 86 63.6027V27.0654C85.9998 23.909 83.4319 21.3412 80.2758 21.3412ZM42.9999 3.78954C44.3742 3.78954 45.4926 4.90787 45.4926 6.28219C45.4926 7.6565 44.3742 8.77484 42.9999 8.77484C41.6256 8.77484 40.5073 7.6565 40.5073 6.28219C40.5073 4.90787 41.6256 3.78954 42.9999 3.78954ZM35.5107 21.3412L39.2022 10.405C40.2021 11.3268 41.5361 11.891 42.9998 11.891C44.4634 11.891 45.7978 11.3268 46.7974 10.405L50.4885 21.3412H35.5107Z" fill="white"/>
<path d="M54.2629 36.1843C53.4022 36.1843 52.7048 36.8818 52.7048 37.7423V47.6357L45.7786 36.898C45.4039 36.3173 44.6915 36.0527 44.0291 36.2479C43.3664 36.4429 42.9112 37.0515 42.9112 37.7423V52.9253C42.9112 53.7858 43.6086 54.4834 44.4693 54.4834C45.33 54.4834 46.0274 53.7858 46.0274 52.9253V43.0322L52.9536 53.7697C53.2458 54.2227 53.7435 54.4832 54.2629 54.4832C54.4093 54.4832 54.5575 54.4624 54.7031 54.4198C55.3657 54.2247 55.8209 53.6162 55.8209 52.9253V37.7423C55.8209 36.882 55.1235 36.1843 54.2629 36.1843Z" fill="white"/>
<path d="M19.6422 46.7947C21.5458 45.9102 22.8693 43.9812 22.8693 41.7477C22.8693 38.6803 20.3737 36.1846 17.3065 36.1846H13.9962C13.1355 36.1846 12.4381 36.8822 12.4381 37.7427V52.9257C12.4381 53.7862 13.1355 54.4838 13.9962 54.4838C14.8568 54.4838 15.5542 53.7862 15.5542 52.9257V47.3107H16.3781L19.8191 53.6673C20.101 54.1883 20.6371 54.4839 21.1907 54.4839C21.441 54.4839 21.6953 54.4233 21.931 54.2958C22.6878 53.8861 22.969 52.9406 22.5594 52.184L19.6422 46.7947ZM17.3105 44.1942C17.307 44.1942 17.3036 44.1944 17.3001 44.1944H15.5542V39.3004H17.3065C18.6556 39.3004 19.7533 40.3981 19.7533 41.7474C19.7533 43.0952 18.6576 44.1919 17.3105 44.1942Z" fill="white"/>
<path d="M37.0035 46.9326C37.8641 46.9326 38.5615 46.235 38.5615 45.3745C38.5615 44.514 37.8641 43.8164 37.0035 43.8164H31.3367V39.3006H37.0035V39.3004C37.8641 39.3004 38.5615 38.6028 38.5615 37.7423C38.5615 36.8818 37.8641 36.1843 37.0035 36.1843H29.7786C28.918 36.1843 28.2206 36.8818 28.2206 37.7423V52.9253C28.2206 53.7858 28.918 54.4834 29.7786 54.4834H37.0035C37.8641 54.4834 38.5615 53.7858 38.5615 52.9253C38.5615 52.0648 37.8641 51.3673 37.0035 51.3673H31.3367V46.9324H37.0035V46.9326Z" fill="white"/>
<path d="M66.3845 48.659C65.5238 48.659 64.8264 49.3566 64.8264 50.2171V52.9257C64.8264 53.7862 65.5238 54.4838 66.3845 54.4838C67.2452 54.4838 67.9426 53.7862 67.9426 52.9257V50.2171C67.9426 49.3566 67.245 48.659 66.3845 48.659Z" fill="white"/>
<path d="M72.0037 36.1843H60.7653C59.9046 36.1843 59.2072 36.8818 59.2072 37.7423C59.2072 38.6028 59.9046 39.3004 60.7653 39.3004H64.8266V46.062C64.8266 46.9225 65.524 47.6201 66.3847 47.6201C67.2453 47.6201 67.9427 46.9225 67.9427 46.062V39.3004H72.0039C72.8645 39.3004 73.5619 38.6028 73.5619 37.7423C73.5616 36.882 72.8642 36.1843 72.0037 36.1843Z" fill="white"/>
</svg>
