<svg width="64" height="64" viewBox="0 0 64 64" fill="none" xmlns="http://www.w3.org/2000/svg">
<path d="M63.8207 52.746L56.0256 41.0491L57.392 40.6225C57.9544 40.4469 58.2679 39.8487 58.0923 39.2863C58.0851 39.2631 58.0771 39.2402 58.0683 39.2177L55.6715 33.0535L60.5525 28.5149C60.9837 28.1136 61.008 27.4386 60.6066 27.0074C60.5893 26.9888 60.5712 26.9708 60.5525 26.9533L55.6715 22.4158L58.0693 16.2516C58.2828 15.7025 58.0108 15.0844 57.4618 14.8708C57.4391 14.862 57.4162 14.854 57.3931 14.8468L50.9761 12.8457L50.415 6.2645C50.3902 5.97157 50.2465 5.7017 50.0172 5.51784C49.7891 5.33451 49.4952 5.25371 49.2055 5.29491L42.5271 6.2197L39.1076 0.519502C38.8048 0.0141751 38.1496 -0.149956 37.6444 0.15284C37.6313 0.160707 37.6185 0.168706 37.6057 0.177106L32.0005 3.86666L26.3963 0.177106C25.9044 -0.147023 25.2428 -0.0110245 24.9187 0.480836C24.9103 0.493502 24.9023 0.506436 24.8944 0.519502L21.4747 6.22183L14.7975 5.29704C14.214 5.21598 13.6752 5.6233 13.5942 6.20676C13.5915 6.22556 13.5895 6.2445 13.5879 6.26343L13.0258 12.8447L6.61412 14.8457C6.05173 15.0213 5.73827 15.6194 5.91386 16.1818C5.92106 16.205 5.92906 16.228 5.93786 16.2505L8.33463 22.4147L3.4483 26.9533C3.0171 27.3546 2.99283 28.0296 3.39416 28.4608C3.4115 28.4794 3.42963 28.4974 3.4483 28.5149L8.3293 33.0524L5.93146 39.2166C5.718 39.7657 5.99 40.3838 6.53906 40.5974C6.56172 40.6062 6.58466 40.6142 6.60772 40.6214L8.02317 41.0619L0.158736 53.8415C-0.15006 54.3432 0.00620488 55.0001 0.507932 55.3089C0.732196 55.4469 0.999526 55.4972 1.25846 55.45L11.9601 53.5044L13.8886 63.147C13.9731 63.5699 14.3039 63.9003 14.727 63.9843C14.7952 63.9964 14.8646 64.0018 14.9339 64.0003C15.2904 64.0003 15.6235 63.8223 15.8213 63.5256L23.305 52.3002L24.8932 54.9487C25.0428 55.1983 25.2879 55.3759 25.5716 55.4404C25.6511 55.4587 25.7323 55.4676 25.8138 55.4671C26.0223 55.4671 26.2263 55.4059 26.4004 55.2911L32.0003 51.6015L37.6045 55.2911C38.0964 55.6152 38.758 55.4792 39.0821 54.9874C39.0905 54.9747 39.0985 54.9618 39.1064 54.9487L40.6957 52.2991L48.1793 63.5256C48.3772 63.8223 48.7103 64.0003 49.0668 64.0003C49.1363 64.0004 49.2056 63.9936 49.2737 63.98C49.6968 63.896 50.0276 63.5656 50.1121 63.1427L52.0534 53.4159L62.8373 54.4004C63.4239 54.4535 63.9426 54.021 63.9958 53.4343C64.0178 53.1916 63.9561 52.9487 63.8207 52.746ZM15.478 60.1987L13.846 52.0538C13.732 51.4834 13.1822 51.1095 12.6098 51.2133L3.22856 52.9199L10.1245 41.7179L13.0247 42.6224L13.5858 49.2037C13.6106 49.4966 13.7543 49.7665 13.9836 49.9503C14.2122 50.1327 14.5056 50.2134 14.7954 50.1733L21.4737 49.2485L22.0913 50.2789L15.478 60.1987ZM41.0596 47.5493L37.8489 52.9018L32.5871 49.433C32.2311 49.1986 31.7698 49.1986 31.4138 49.433L26.1509 52.8975L22.9403 47.544C22.7478 47.2226 22.4007 47.0259 22.0262 47.0256C21.9769 47.0255 21.9277 47.029 21.879 47.0363L15.6167 47.9024L15.0897 41.7275C15.0528 41.2951 14.7576 40.9282 14.3431 40.7995L8.33463 38.9244L10.5746 33.1516C10.7331 32.7442 10.627 32.2814 10.3069 31.9836L5.7416 27.7341L10.3122 23.4845C10.6323 23.1868 10.7385 22.724 10.5799 22.3166L8.33997 16.5417L14.3506 14.6676C14.7651 14.5389 15.0603 14.172 15.0972 13.7396L15.6241 7.56475L21.8865 8.43194C22.3121 8.49273 22.7326 8.2922 22.9531 7.92314L26.1637 2.57068L31.4138 6.03517C31.7698 6.26956 32.2311 6.26956 32.5871 6.03517L37.85 2.57068L41.0606 7.92421C41.282 8.2894 41.6987 8.48874 42.1219 8.43194L48.3843 7.56581L48.9112 13.7407C48.9481 14.1731 49.2433 14.54 49.6579 14.6687L55.6684 16.5438L53.4221 22.3166C53.2635 22.724 53.3697 23.1868 53.6898 23.4845L58.2593 27.7341L53.6887 31.9836C53.3686 32.2814 53.2625 32.7442 53.421 33.1516L55.661 38.9265L49.6557 40.8006C49.2412 40.9293 48.946 41.2962 48.9091 41.7286L48.3821 47.9034L42.1209 47.0405C41.6973 46.9839 41.2806 47.1837 41.0596 47.5493ZM51.2962 51.2005C50.7557 51.1586 50.2677 51.5235 50.1549 52.0538L48.5261 60.1956L41.9129 50.2757L42.5294 49.2474L49.2067 50.1722C49.7901 50.2533 50.3289 49.8459 50.41 49.2625C50.4126 49.2437 50.4146 49.2248 50.4162 49.2058L50.9784 42.6246L53.9063 41.7115L60.8086 52.0698L51.2962 51.2005Z" fill="#454545"/>
<path d="M47.9999 22.4001C47.9999 20.6328 46.5673 19.2002 44.8 19.2002H37.3334V14.9335C37.3363 11.9911 34.9533 9.60321 32.0108 9.60028C32.0072 9.60028 32.0037 9.60028 32.0001 9.60028C31.4111 9.60028 30.9335 10.0779 30.9335 10.6669V15.7485L29.0135 19.5799L25.581 22.3265C25.5464 21.772 25.0892 21.3385 24.5336 21.3335H17.067C16.4779 21.3335 16.0003 21.8111 16.0003 22.4001V38.3999C16.0003 38.989 16.4779 39.4666 17.067 39.4666H24.5336C25.1226 39.4666 25.6002 38.989 25.6002 38.3999H41.6C43.3637 38.3911 44.7912 36.9637 44.8 35.2C44.7964 34.6498 44.6493 34.1101 44.3733 33.6341C44.5701 33.5113 44.752 33.366 44.9152 33.2011C45.9494 32.1952 46.1658 30.6143 45.44 29.3675C45.6368 29.2447 45.8186 29.0994 45.9818 28.9344C47.0161 27.9286 47.2325 26.3477 46.5066 25.1009C46.7034 24.9781 46.8853 24.8328 47.0485 24.6678C47.6607 24.0726 48.0043 23.2538 47.9999 22.4001ZM23.467 37.3333H18.1338V23.4668H23.467V37.3333ZM45.5402 23.1596C45.3457 23.3586 45.0782 23.4696 44.8 23.4668H40.5334V25.6001H43.7333C44.3224 25.6001 44.8 26.0777 44.8 26.6667C44.8009 26.9542 44.6828 27.2291 44.4736 27.4262C44.2791 27.6253 44.0116 27.7362 43.7333 27.7334H39.4667V29.8667H42.6667C43.2557 29.8667 43.7333 30.3443 43.7333 30.9333C43.7343 31.2208 43.6161 31.4957 43.4069 31.6928C43.2124 31.8919 42.9449 32.0028 42.6667 32H38.4001V34.1333H41.6C42.1891 34.1333 42.6667 34.6109 42.6667 35.2C42.6676 35.4874 42.5495 35.7624 42.3403 35.9594C42.1457 36.1585 41.8783 36.2694 41.6 36.2666H25.6002V25.0454L30.5335 21.0999C30.654 21.0032 30.7523 20.8817 30.8215 20.7436L32.9548 16.477C33.0287 16.3289 33.0669 16.1657 33.0668 16.0002V11.916C34.3476 12.3654 35.2036 13.5762 35.2001 14.9335V20.2668C35.2001 20.8559 35.6777 21.3335 36.2668 21.3335H44.8C45.389 21.3335 45.8666 21.8111 45.8666 22.4001C45.8677 22.6875 45.7494 22.9624 45.5402 23.1596Z" fill="#454545"/>
</svg>
