<svg width="8" height="11" viewBox="0 0 8 11" fill="none" xmlns="http://www.w3.org/2000/svg">
<path d="M0.630585 5.58153H1.62458V0.583535C1.97925 0.499535 2.35725 0.443535 2.75858 0.415535C3.16925 0.387535 3.57525 0.373535 3.97658 0.373535C4.40592 0.373535 4.82592 0.415535 5.23659 0.499534C5.65659 0.583534 6.02525 0.737535 6.34259 0.961535C6.66925 1.18553 6.93059 1.48887 7.12659 1.87154C7.32258 2.2542 7.42058 2.7442 7.42058 3.34153C7.42058 3.92953 7.31792 4.41953 7.11259 4.81153C6.91659 5.20354 6.65058 5.52087 6.31458 5.76354C5.98792 6.0062 5.60992 6.17887 5.18058 6.28154C4.76059 6.3842 4.33125 6.4402 3.89258 6.44953L2.78658 6.46354V7.45754H5.11058V8.32554H2.78658V10.2855H1.62458V8.32554H0.630585V7.45754H1.62458V6.44953H0.630585V5.58153ZM4.00459 1.35354C3.76192 1.35354 3.52858 1.36287 3.30458 1.38153C3.08992 1.39087 2.91725 1.40953 2.78658 1.43753V5.49754H3.85058C4.13058 5.49754 4.41059 5.46954 4.69059 5.41354C4.97059 5.35754 5.22258 5.2502 5.44658 5.09154C5.67058 4.93287 5.85258 4.7182 5.99258 4.44754C6.13258 4.16754 6.19792 3.80353 6.18858 3.35553C6.19792 2.97287 6.14192 2.65553 6.02059 2.40353C5.90859 2.1422 5.74992 1.93687 5.54458 1.78753C5.34858 1.62887 5.11525 1.51687 4.84458 1.45153C4.58325 1.3862 4.30325 1.35354 4.00459 1.35354Z" fill="#2C6A8C"/>
</svg>
