<svg width="20" height="18" viewBox="0 0 20 18" fill="none" xmlns="http://www.w3.org/2000/svg">
<path d="M19.1007 17.3599L13.2533 11.883C14.4678 10.6199 15.2143 8.95461 15.2143 7.12498C15.2143 3.1963 11.8017 0 7.60716 0C3.41259 0 0 3.1963 0 7.12501C0 11.0537 3.41259 14.25 7.60716 14.25C9.5606 14.25 11.3386 13.5509 12.6871 12.4133L18.5346 17.8901C18.6128 17.9634 18.7153 18 18.8177 18C18.9201 18 19.0226 17.9634 19.1008 17.8901C19.2572 17.7436 19.2572 17.5063 19.1007 17.3599ZM7.60716 13.5C3.85442 13.5 0.800777 10.6403 0.800777 7.12501C0.800777 3.60977 3.85442 0.749988 7.60716 0.749988C11.3599 0.749988 14.4135 3.60974 14.4135 7.12501C14.4135 10.6403 11.3599 13.5 7.60716 13.5Z" fill="black"/>
</svg>
