<svg width="54" height="54" viewBox="0 0 54 54" fill="none" xmlns="http://www.w3.org/2000/svg">
<path d="M46.2979 43.4234C44.7583 43.4234 43.5056 44.6759 43.5056 46.2157C43.5056 47.7553 44.7582 49.0079 46.2979 49.0079C47.8376 49.0079 49.0901 47.7553 49.0901 46.2157C49.0901 44.6761 47.8376 43.4234 46.2979 43.4234ZM46.2978 47.3531C45.6707 47.3531 45.1605 46.8428 45.1605 46.2157C45.1605 45.5886 45.6707 45.0783 46.2978 45.0783C46.9249 45.0783 47.4352 45.5886 47.4352 46.2157C47.4352 46.8428 46.9249 47.3531 46.2978 47.3531Z" fill="white"/>
<path d="M53.821 46.0709C53.7683 44.0266 52.903 42.1463 51.3845 40.7765L34.7255 25.7509L49.4551 11.0214C49.5519 10.9925 49.6475 10.9565 49.7398 10.9078L52.9295 9.22429C53.3702 8.99162 53.6657 8.57544 53.74 8.0828C53.8145 7.59005 53.6551 7.10532 53.3028 6.75263L49.7113 3.16131C49.3589 2.80894 48.8745 2.64958 48.3813 2.72404C47.8886 2.79839 47.4726 3.09392 47.2398 3.53467L45.5562 6.72415C45.507 6.81728 45.4693 6.91357 45.4403 7.01134L38.4878 13.9638C38.1646 14.2871 38.1646 14.8109 38.4878 15.1341C38.811 15.4571 39.3348 15.4571 39.6581 15.1341L46.0381 8.754L47.7101 10.426L31.3941 26.742L29.7221 25.07L36.8438 17.9483C37.167 17.6251 37.167 17.1013 36.8438 16.7781C36.5206 16.4551 35.9968 16.4551 35.6736 16.7781L30.5062 21.9454L24.8824 16.873C26.4769 12.2834 25.3222 7.17714 21.8634 3.7184C18.3206 0.175595 13.0058 -0.953449 8.32319 0.842368C8.06152 0.942775 7.86841 1.16869 7.81019 1.4428C7.75197 1.71692 7.83624 2.00189 8.03442 2.20007L14.5304 8.69621C14.7226 8.88837 14.8286 9.14392 14.8286 9.41571C14.8286 9.68751 14.7227 9.94306 14.5304 10.1353L10.3118 14.354C10.1196 14.5462 9.86409 14.6521 9.5923 14.6521C9.3205 14.6521 9.06495 14.5463 8.87268 14.354L2.37655 7.85783C2.17827 7.65966 1.8935 7.57539 1.61928 7.63361C1.34517 7.69193 1.11925 7.88494 1.01885 8.14661C-0.776969 12.829 0.352075 18.1438 3.89498 21.6868C7.26903 25.0607 12.2764 26.2486 16.7937 24.7891L21.1419 29.5439C20.9329 29.9522 20.6612 30.3329 20.3262 30.668C19.0728 31.9214 17.1943 32.3163 15.54 31.6742C15.2342 31.5552 14.8874 31.6284 14.6553 31.8603L4.5241 41.9915C1.78149 44.7343 1.78149 49.1969 4.5241 51.9394C5.8529 53.2684 7.6194 54 9.49833 54C11.3771 54 13.1437 53.2684 14.4723 51.9398L24.6036 41.8087C24.8354 41.5767 24.9085 41.2297 24.7897 40.924C24.1475 39.2698 24.5424 37.3911 25.7957 36.1377C27.0493 34.8843 28.9279 34.4894 30.5821 35.1315C30.888 35.2505 31.2347 35.1771 31.4667 34.9454L33.3778 33.0343C33.9533 32.4589 34.2701 31.6937 34.2701 30.88C34.2701 30.0663 33.9533 29.3011 33.3778 28.7257L32.5643 27.9122L33.554 26.9226L50.2762 42.0054C51.4545 43.0682 52.1261 44.5272 52.1669 46.1135C52.2077 47.6997 51.6122 49.1914 50.4901 50.3133C49.3734 51.4303 47.8856 52.0247 46.3098 51.9906C44.7308 51.9554 43.2743 51.2941 42.2085 50.1286L29.7749 36.5321C29.4662 36.1947 28.9431 36.1715 28.6059 36.4798C28.2687 36.7883 28.2453 37.3117 28.5537 37.6489L40.9872 51.2454C42.3608 52.7474 44.2379 53.5995 46.2728 53.645C46.3297 53.6463 46.3866 53.6469 46.4434 53.6469C48.4144 53.6469 50.2613 52.8824 51.6603 51.4835C53.1063 50.0374 53.8736 48.1152 53.821 46.0709ZM47.0548 7.43026L48.6388 4.42926L52.0348 7.82524L49.0338 9.40928L47.0548 7.43026ZM17.6475 23.2705C17.4197 23.0216 17.0638 22.9358 16.7476 23.0537C12.7015 24.5629 8.11552 23.5671 5.06505 20.5169C2.29523 17.747 1.22198 13.7314 2.16772 9.98957L7.7024 15.5243C8.20728 16.029 8.87838 16.3069 9.59219 16.3069C10.306 16.3069 10.9771 16.029 11.4819 15.5243L15.7005 11.3056C16.2053 10.8007 16.4832 10.1296 16.4832 9.41582C16.4832 8.70201 16.2053 8.03091 15.7005 7.52614L10.1659 1.99124C13.9074 1.04508 17.9235 2.11865 20.6932 4.88857C23.8213 8.01646 24.7825 12.6936 23.1424 16.8042C23.014 17.1258 23.0995 17.4934 23.3567 17.7253L29.3346 23.1171L28.5518 23.8998L27.7383 23.0864C27.1629 22.5109 26.3977 22.1941 25.584 22.1941C24.7703 22.1941 24.0051 22.5109 23.4297 23.0864L21.5186 24.9975C21.2868 25.2294 21.2137 25.5764 21.3324 25.8821C21.5526 26.449 21.648 27.042 21.6317 27.6274L17.6475 23.2705ZM32.2074 31.8641L30.6589 33.4127C28.5293 32.7988 26.212 33.3812 24.6256 34.9674H24.6255C23.0392 36.5538 22.4567 38.8708 23.0709 41.0009L13.3022 50.7694C12.2861 51.7855 10.9352 52.3451 9.49843 52.3451C8.06163 52.3451 6.71058 51.7855 5.6947 50.7694C3.59724 48.672 3.59724 45.2593 5.6947 43.1618L15.4633 33.3932C17.5932 34.0075 19.9102 33.4246 21.4967 31.8384C23.0829 30.252 23.6655 27.935 23.0514 25.805L24.6 24.2565C25.1425 23.7138 26.0256 23.7138 26.5681 24.2565L27.9667 25.6552L30.8088 28.4972L32.2074 29.8959C32.7502 30.4386 32.7502 31.3216 32.2074 31.8641Z" fill="white"/>
<path d="M17.1203 36.5185C16.7971 36.1954 16.2733 36.1954 15.95 36.5185L8.11181 44.3567C7.78866 44.68 7.78866 45.2037 8.11181 45.527C8.27339 45.6885 8.48528 45.7692 8.69695 45.7692C8.90863 45.7692 9.12052 45.6885 9.28209 45.527L17.1203 37.6888C17.4434 37.3655 17.4434 36.8416 17.1203 36.5185Z" fill="white"/>
<path d="M20.0164 39.4145C19.6932 39.0915 19.1694 39.0915 18.8461 39.4145L11.0079 47.2527C10.6847 47.5759 10.6847 48.0997 11.0079 48.4229C11.1694 48.5844 11.3812 48.6652 11.593 48.6652C11.8047 48.6652 12.0166 48.5844 12.1782 48.4229L20.0164 40.5848C20.3395 40.2615 20.3395 39.7378 20.0164 39.4145Z" fill="white"/>
</svg>
