<svg width="72" height="60" viewBox="0 0 72 60" fill="none" xmlns="http://www.w3.org/2000/svg">
<path d="M68.6908 57.127H67.491V25.8375C70.2003 24.0942 72 21.0543 72 17.6C72 17.4165 71.952 17.2361 71.8611 17.0768L63.492 2.43094C62.9042 1.40255 61.8033 0.76355 60.6188 0.76355H11.3812C10.1967 0.76355 9.09577 1.40241 8.50795 2.43094L0.138938 17.0768C0.0479531 17.2361 0 17.4166 0 17.6C0 21.0543 1.79972 24.0942 4.509 25.8375V57.127H3.30919C2.72672 57.127 2.2545 57.5993 2.2545 58.1817C2.2545 58.7642 2.72672 59.2364 3.30919 59.2364H68.6908C69.2734 59.2364 69.7455 58.7642 69.7455 58.1817C69.7455 57.5993 69.2733 57.127 68.6908 57.127ZM2.18208 18.6547H5.56327C6.14573 18.6547 6.61795 18.1825 6.61795 17.6C6.61795 17.0176 6.14573 16.5453 5.56327 16.5453H2.87212L10.3395 3.47747C10.5526 3.10453 10.9517 2.87292 11.3812 2.87292H60.6188C61.0483 2.87292 61.4475 3.10453 61.6605 3.47747L69.1277 16.5453H66.436C65.8534 16.5453 65.3813 17.0176 65.3813 17.6C65.3813 18.1825 65.8534 18.6547 66.436 18.6547H69.8178C69.3021 22.3931 66.0867 25.2817 62.2088 25.2817C58.3311 25.2817 55.1173 22.3928 54.6015 18.6547H61.9275C62.5101 18.6547 62.9821 18.1825 62.9821 17.6C62.9821 17.0176 62.5101 16.5453 61.9275 16.5453H10.0731C9.49064 16.5453 9.01842 17.0176 9.01842 17.6C9.01842 18.1825 9.49064 18.6547 10.0731 18.6547H17.3984C16.8826 22.3928 13.6686 25.2817 9.79102 25.2817C5.91314 25.2817 2.69775 22.3931 2.18208 18.6547ZM52.3437 18.6547C51.8279 22.3928 48.6139 25.2817 44.7363 25.2817C40.8586 25.2817 37.6448 22.3928 37.1289 18.6547H52.3437ZM34.8711 18.6547C34.3553 22.3928 31.1413 25.2817 27.2637 25.2817C23.3861 25.2817 20.1721 22.3928 19.6563 18.6547H34.8711ZM59.7451 57.1272H48.3273V53.6002H59.7451V57.1272ZM59.7451 51.4908H48.3273V32.182H59.7451V51.4908ZM65.3816 57.1272H61.8546V31.1273C61.8546 30.5448 61.3825 30.0726 60.7999 30.0726H47.2728C46.6902 30.0726 46.2181 30.5448 46.2181 31.1273V57.127H6.61837V26.8605C7.61414 27.2026 8.68064 27.391 9.79102 27.391C13.6012 27.391 16.91 25.2035 18.5273 22.0182C20.1447 25.2033 23.4534 27.391 27.2637 27.391C31.0739 27.391 34.3827 25.2035 36 22.0182C37.6173 25.2033 40.9261 27.391 44.7363 27.391C48.5466 27.391 51.8553 25.2035 53.4727 22.0182C55.09 25.2033 58.3988 27.391 62.209 27.391C63.3194 27.391 64.3859 27.2026 65.3816 26.8606V57.1272Z" fill="white"/>
<path d="M41.6364 30.0726H11.2001C10.6176 30.0726 10.1454 30.5448 10.1454 31.1273V52.5454C10.1454 53.1279 10.6176 53.6001 11.2001 53.6001H41.6364C42.219 53.6001 42.6911 53.1279 42.6911 52.5454V31.1273C42.6911 30.5446 42.219 30.0726 41.6364 30.0726ZM40.5817 51.4907H12.2548V32.1819H40.5817V51.4907Z" fill="white"/>
</svg>
