<svg width="14" height="14" viewBox="0 0 14 14" fill="none" xmlns="http://www.w3.org/2000/svg">
<path d="M3.13353 13.7169C2.98014 13.7169 2.82783 13.6691 2.69783 13.5751C2.45568 13.3996 2.34257 13.0979 2.40847 12.8069L3.30913 8.83947L0.25467 6.16078C0.0301464 5.96478 -0.0556255 5.65437 0.0365553 5.37035C0.128736 5.08687 0.379536 4.88616 0.67648 4.85871L4.7179 4.49181L6.31574 0.75256C6.43355 0.477834 6.70187 0.300415 6.99999 0.300415C7.29811 0.300415 7.56643 0.477834 7.68424 0.751919L9.28208 4.49181L13.3229 4.85871C13.6204 4.88552 13.8712 5.08687 13.9634 5.37035C14.0556 5.65384 13.9704 5.96478 13.7458 6.16078L10.6914 8.83893L11.592 12.8062C11.6581 13.0979 11.5448 13.3996 11.3028 13.5745C11.0613 13.7495 10.7392 13.763 10.4849 13.6101L6.99999 11.5276L3.51507 13.6113C3.39725 13.6813 3.26598 13.7169 3.13353 13.7169ZM6.99999 10.6304C7.13244 10.6304 7.26361 10.666 7.38153 10.736L10.6704 12.703L9.82042 8.95846C9.75975 8.69196 9.85022 8.41371 10.0562 8.2334L12.9403 5.70404L9.12453 5.35754C8.8498 5.33243 8.61353 5.15972 8.50618 4.90657L6.99999 1.37785L5.49199 4.9071C5.38581 5.15854 5.14954 5.33126 4.87545 5.35636L1.0592 5.70287L3.94318 8.23223C4.14976 8.41306 4.24012 8.69078 4.17892 8.95792L3.32953 12.7024L6.61845 10.736C6.73627 10.666 6.86754 10.6304 6.99999 10.6304ZM4.68703 4.56412C4.68703 4.56412 4.68703 4.56476 4.68639 4.56529L4.68703 4.56412ZM9.31177 4.56241L9.31241 4.56359C9.31241 4.56294 9.31241 4.56294 9.31177 4.56241Z" fill="#2C6A8C"/>
</svg>
