<svg width="21" height="21" viewBox="0 0 21 21" fill="none" xmlns="http://www.w3.org/2000/svg">
<path d="M3.69349 16.2401C3.39949 16.2401 3.11687 16.3135 2.86613 16.4513C1.5453 14.7581 0.820312 12.6548 0.820312 10.5C0.820312 5.16252 5.16252 0.820312 10.5 0.820312C11.1489 0.820312 11.7974 0.88488 12.4277 1.01225C12.6495 1.05711 12.8661 0.913559 12.9109 0.691498C12.9558 0.469437 12.8123 0.253143 12.5902 0.208122C11.9065 0.070015 11.2034 0 10.5 0C7.6954 0 5.05854 1.0922 3.07537 3.07537C1.0922 5.05854 0 7.6954 0 10.5C0 12.8592 0.801086 15.1615 2.25954 17.0072C2.07177 17.2878 1.97083 17.6175 1.97083 17.9628C1.97083 18.4229 2.15012 18.8555 2.47552 19.1807C2.80076 19.5061 3.23335 19.6854 3.69349 19.6854C4.15363 19.6854 4.58622 19.5061 4.91162 19.1807C5.23702 18.8555 5.41615 18.4227 5.41615 17.9626C5.41615 17.5026 5.23702 17.0699 4.91162 16.7446C4.58622 16.4192 4.15363 16.2401 3.69349 16.2401ZM4.33147 18.6007C4.16116 18.7712 3.93446 18.8651 3.69349 18.8651C3.45252 18.8651 3.22598 18.7712 3.0555 18.6007C2.88503 18.4303 2.79115 18.2037 2.79115 17.9628C2.79115 17.7216 2.88503 17.4951 3.0555 17.3246C3.22581 17.1541 3.45252 17.0604 3.69349 17.0604C3.93446 17.0604 4.161 17.1543 4.33147 17.3246C4.50195 17.4951 4.59583 17.7216 4.59583 17.9628C4.59583 18.2037 4.50195 18.4303 4.33147 18.6007Z" fill="#2C6A8C"/>
<path d="M18.7401 3.99241C19.1859 3.3235 19.1143 2.40898 18.5246 1.81922C18.1992 1.49398 17.7666 1.3147 17.3064 1.3147C16.8463 1.3147 16.4137 1.49398 16.0883 1.81922C15.7629 2.14462 15.5838 2.57721 15.5838 3.03735C15.5838 3.4975 15.7629 3.93008 16.0883 4.25549C16.4137 4.58089 16.8463 4.76001 17.3064 4.76001C17.6004 4.76001 17.8831 4.68663 18.1338 4.54884C19.4546 6.24218 20.1796 8.34535 20.1796 10.5001C20.1796 15.8376 15.8374 20.1798 10.4999 20.1798C9.85746 20.1798 9.21499 20.1165 8.59062 19.9915C8.36856 19.9472 8.15242 20.0912 8.10788 20.3133C8.0635 20.5355 8.20754 20.7515 8.4296 20.796C9.10684 20.9314 9.80346 21.0001 10.4999 21.0001C13.3045 21.0001 15.9414 19.9079 17.9246 17.9247C19.9077 15.9416 20.9999 13.3047 20.9999 10.5001C20.9999 8.14075 20.1987 5.83827 18.7401 3.99241ZM16.6685 3.6755C16.498 3.50503 16.4041 3.27848 16.4041 3.03735C16.4041 2.79639 16.498 2.56984 16.6685 2.39937C16.8388 2.2289 17.0655 2.13501 17.3064 2.13501C17.5474 2.13501 17.7741 2.2289 17.9446 2.39937C18.2963 2.75121 18.2963 3.32366 17.9446 3.6755C17.7741 3.84581 17.5474 3.9397 17.3064 3.9397C17.0653 3.9397 16.8388 3.84581 16.6685 3.6755Z" fill="#2C6A8C"/>
<path d="M8.80737 17.5547C8.80737 17.7812 8.99114 17.9648 9.21753 17.9648H11.7821C12.0087 17.9648 12.1923 17.7812 12.1923 17.5547V16.7595C12.7316 16.6144 13.2472 16.4006 13.7317 16.1215L14.2931 16.6829C14.37 16.7598 14.4743 16.8031 14.5832 16.8031C14.6918 16.8031 14.7963 16.7598 14.8732 16.6828L16.6859 14.8688C16.846 14.7086 16.846 14.4489 16.6859 14.2888L16.1251 13.7281C16.4042 13.2436 16.618 12.728 16.7631 12.1887H17.5552C17.7818 12.1887 17.9654 12.0051 17.9654 11.7785V9.21394C17.9654 8.98739 17.7818 8.80378 17.5552 8.80378H16.763C16.6178 8.26465 16.4042 7.74907 16.1251 7.26457L16.6829 6.70686C16.7598 6.62995 16.803 6.52549 16.803 6.4167C16.8029 6.30791 16.7596 6.20345 16.6827 6.12655L14.8686 4.31385C14.7085 4.15379 14.4488 4.15379 14.2886 4.31401L13.7317 4.87109C13.2472 4.59199 12.7316 4.37826 12.1923 4.2331V3.44531C12.1923 3.21877 12.0087 3.03516 11.7821 3.03516H9.21753C8.99114 3.03516 8.80737 3.21877 8.80737 3.44531V4.23326C8.26824 4.37826 7.75266 4.59199 7.26817 4.87109L6.71109 4.31401C6.55103 4.15395 6.29132 4.15379 6.1311 4.31385L4.31712 6.12671C4.24006 6.20361 4.1968 6.30791 4.1968 6.4167C4.1968 6.52549 4.24006 6.62995 4.31696 6.70686L4.87468 7.26457C4.59558 7.74907 4.38185 8.26449 4.23669 8.80378H3.44602C3.21948 8.80378 3.03587 8.98739 3.03587 9.21378L3.03442 11.7784C3.03426 11.8872 3.07752 11.9916 3.15443 12.0685C3.23133 12.1454 3.33563 12.1887 3.44458 12.1887H4.23669C4.38185 12.728 4.59558 13.2436 4.87468 13.7281L4.31392 14.2888C4.15386 14.4489 4.1537 14.7086 4.31392 14.8688L6.12662 16.6828C6.20352 16.7597 6.30782 16.8031 6.41661 16.8031H6.41677C6.52556 16.8031 6.62986 16.7598 6.70676 16.6829L7.26801 16.1215C7.75266 16.4006 8.26824 16.6144 8.80737 16.7595V17.5547ZM7.42886 15.2589C7.26656 15.154 7.05299 15.1767 6.91617 15.3134L6.41677 15.8128L5.1839 14.579L5.68282 14.0799C5.81948 13.9432 5.84223 13.7297 5.73729 13.5674C5.36543 12.9919 5.10395 12.3611 4.9604 11.6923C4.9197 11.5034 4.75275 11.3684 4.55937 11.3684H3.8549L3.85586 9.62409H4.55937C4.75275 9.62409 4.9197 9.48919 4.9604 9.30013C5.10395 8.63155 5.36543 8.00077 5.73729 7.42527C5.84223 7.26297 5.81948 7.0494 5.68282 6.91273L5.1871 6.41686L6.42094 5.18399L6.91617 5.67938C7.05299 5.81605 7.2664 5.83864 7.42886 5.73386C8.0042 5.36199 8.63498 5.10052 9.30373 4.95696C9.49262 4.91627 9.62769 4.74916 9.62769 4.55594V3.85547H11.372V4.55578C11.372 4.74916 11.5069 4.91627 11.6959 4.9568C12.3645 5.10052 12.9955 5.36183 13.5708 5.7337C13.7331 5.83864 13.9467 5.81605 14.0833 5.67922L14.5787 5.18399L15.8126 6.41686L15.3168 6.91257C15.18 7.0494 15.1574 7.26297 15.2624 7.42527C15.6342 8.00077 15.8955 8.63155 16.0393 9.30013C16.0798 9.48919 16.2469 9.62409 16.4403 9.62409H17.1451V11.3684H16.4403C16.2469 11.3684 16.08 11.5034 16.0393 11.6923C15.8957 12.3609 15.6342 12.9919 15.2624 13.5672C15.1574 13.7297 15.1802 13.9432 15.3168 14.0799L15.8158 14.5788L14.5829 15.8126L14.0835 15.3134C13.9467 15.1766 13.7331 15.154 13.5708 15.2589C12.9953 15.6308 12.3645 15.8921 11.6959 16.0358C11.5069 16.0765 11.372 16.2435 11.372 16.4369V17.1445H9.62769V16.4369C9.62769 16.2436 9.49262 16.0765 9.30373 16.0358C8.63514 15.8923 8.00436 15.6308 7.42886 15.2589Z" fill="#2C6A8C"/>
<path d="M13.889 10.4999C13.889 8.63114 12.3687 7.11084 10.4999 7.11084C8.63114 7.11084 7.11084 8.63114 7.11084 10.4999C7.11084 12.3687 8.63114 13.889 10.4999 13.889C12.3687 13.889 13.889 12.3687 13.889 10.4999ZM7.93115 10.4999C7.93115 9.08344 9.08344 7.93115 10.4999 7.93115C11.9164 7.93115 13.0687 9.0836 13.0687 10.4999C13.0687 11.9162 11.9164 13.0687 10.4999 13.0687C9.08344 13.0687 7.93115 11.9164 7.93115 10.4999Z" fill="#2C6A8C"/>
<path d="M14.2766 1.55126C14.3846 1.55126 14.4903 1.50736 14.5666 1.4311C14.6429 1.35435 14.6868 1.24861 14.6868 1.14062C14.6868 1.03328 14.643 0.927376 14.5666 0.850632C14.4903 0.774368 14.3846 0.730469 14.2766 0.730469C14.1683 0.730469 14.063 0.774368 13.9868 0.850632C13.9104 0.927376 13.8665 1.0328 13.8665 1.14062C13.8665 1.24893 13.9104 1.35435 13.9868 1.4311C14.063 1.50736 14.1683 1.55126 14.2766 1.55126Z" fill="#2C6A8C"/>
<path d="M6.74121 19.4561C6.63338 19.4561 6.52748 19.5 6.45122 19.5762C6.37495 19.6525 6.33105 19.7584 6.33105 19.8662C6.33105 19.9745 6.37495 20.0799 6.45122 20.1562C6.52748 20.2325 6.63338 20.2764 6.74121 20.2764C6.84904 20.2764 6.95494 20.2325 7.0312 20.1562C7.10747 20.0799 7.15137 19.974 7.15137 19.8662C7.15137 19.7584 7.10747 19.6525 7.0312 19.5762C6.95494 19.5 6.84904 19.4561 6.74121 19.4561Z" fill="#2C6A8C"/>
</svg>
