<svg width="28" height="28" viewBox="0 0 28 28" fill="none" xmlns="http://www.w3.org/2000/svg">
<rect width="28" height="28" rx="6" fill="#F3F3F3"/>
<g clip-path="url(#clip0)">
<path d="M16.2067 11.7969C15.9998 11.7969 15.832 11.9646 15.832 12.1716V19.2535C15.832 19.4604 15.9998 19.6283 16.2067 19.6283C16.4137 19.6283 16.5814 19.4604 16.5814 19.2535V12.1716C16.5814 11.9646 16.4137 11.7969 16.2067 11.7969Z" fill="#2C6A8C"/>
<path d="M11.7858 11.7969C11.5789 11.7969 11.4111 11.9646 11.4111 12.1716V19.2535C11.4111 19.4604 11.5789 19.6283 11.7858 19.6283C11.9928 19.6283 12.1605 19.4604 12.1605 19.2535V12.1716C12.1605 11.9646 11.9928 11.7969 11.7858 11.7969Z" fill="#2C6A8C"/>
<path d="M8.56325 10.7634V19.9953C8.56325 20.541 8.76334 21.0534 9.11287 21.4211C9.46079 21.7898 9.94498 21.9991 10.4517 22H17.5413C18.0481 21.9991 18.5323 21.7898 18.8801 21.4211C19.2296 21.0534 19.4297 20.541 19.4297 19.9953V10.7634C20.1245 10.5789 20.5748 9.90768 20.4818 9.19471C20.3887 8.48189 19.7815 7.94867 19.0625 7.94852H17.144V7.48014C17.1462 7.08626 16.9905 6.70804 16.7116 6.42979C16.4328 6.15169 16.054 5.99683 15.6601 6.00005H12.3329C11.939 5.99683 11.5602 6.15169 11.2813 6.42979C11.0025 6.70804 10.8468 7.08626 10.849 7.48014V7.94852H8.93049C8.21152 7.94867 7.60424 8.48189 7.51115 9.19471C7.4182 9.90768 7.86843 10.5789 8.56325 10.7634ZM17.5413 21.2506H10.4517C9.81105 21.2506 9.31266 20.7002 9.31266 19.9953V10.7963H18.6803V19.9953C18.6803 20.7002 18.1819 21.2506 17.5413 21.2506ZM11.5984 7.48014C11.5959 7.28503 11.6726 7.09724 11.811 6.9595C11.9494 6.82177 12.1376 6.7461 12.3329 6.74946H15.6601C15.8554 6.7461 16.0436 6.82177 16.1819 6.9595C16.3204 7.09709 16.3971 7.28503 16.3946 7.48014V7.94852H11.5984V7.48014ZM8.93049 8.69793H19.0625C19.435 8.69793 19.737 8.99989 19.737 9.3724C19.737 9.74492 19.435 10.0469 19.0625 10.0469H8.93049C8.55798 10.0469 8.25602 9.74492 8.25602 9.3724C8.25602 8.99989 8.55798 8.69793 8.93049 8.69793Z" fill="#2C6A8C"/>
<path d="M13.9958 11.7969C13.7888 11.7969 13.6211 11.9646 13.6211 12.1716V19.2535C13.6211 19.4604 13.7888 19.6283 13.9958 19.6283C14.2028 19.6283 14.3705 19.4604 14.3705 19.2535V12.1716C14.3705 11.9646 14.2028 11.7969 13.9958 11.7969Z" fill="#2C6A8C"/>
</g>
<defs>
<clipPath id="clip0">
<rect x="6" y="6" width="16" height="16" fill="white"/>
</clipPath>
</defs>
</svg>
