<svg width="86" height="56" viewBox="0 0 86 56" fill="none" xmlns="http://www.w3.org/2000/svg">
<path d="M79.9797 23.8617L77.7526 14.9535C78.3614 14.8242 78.8183 14.284 78.8183 13.6368V12.2005C78.8183 9.08198 76.2812 6.54498 73.1628 6.54498H63.0188V3.58235C63.0188 2.04778 61.7705 0.799438 60.2359 0.799438H8.52811C6.99355 0.799438 5.7452 2.04778 5.7452 3.58235V28C5.7452 28.7436 6.34804 29.3466 7.09181 29.3466C7.83541 29.3466 8.43841 28.7437 8.43841 28V3.58235C8.43841 3.53279 8.47856 3.49265 8.52811 3.49265H60.2358C60.2853 3.49265 60.3255 3.53279 60.3255 3.58235V28.0003C60.3255 28.7439 60.9283 29.3469 61.6721 29.3469C62.4157 29.3469 63.0187 28.7441 63.0187 28.0003V26.4738H78.9033C78.9047 26.4738 78.9057 26.4741 78.9068 26.4741C78.9082 26.4741 78.9094 26.474 78.9105 26.474C80.8652 26.4753 82.5249 27.7583 83.095 29.5261H78.9079C78.1643 29.5261 77.5612 30.129 77.5612 30.8727V33.7453C77.5612 36.0719 79.4539 37.9645 81.7804 37.9645H83.3066V43.8893H79.7857C78.629 40.5496 75.4542 38.1439 71.7262 38.1439C67.9981 38.1439 64.8232 40.5496 63.6667 43.8893H63.0183V33.7452C63.0183 33.0016 62.4155 32.3986 61.6717 32.3986C60.9281 32.3986 60.3251 33.0014 60.3251 33.7452V43.889H32.3872C31.2306 40.5493 28.0558 38.1436 24.3278 38.1436C20.5997 38.1436 17.4247 40.5493 16.2683 43.889H8.52811C8.47856 43.889 8.43841 43.8488 8.43841 43.7993V40.8368H14.2735C15.0171 40.8368 15.6201 40.234 15.6201 39.4902C15.6201 38.7464 15.0172 38.1436 14.2735 38.1436H1.34661C0.603008 38.1436 0 38.7464 0 39.4902C0 40.234 0.60284 40.8368 1.34661 40.8368H5.74537V43.7993C5.74537 45.3338 6.99371 46.5822 8.52828 46.5822H15.802C15.8017 46.6121 15.7996 46.6418 15.7996 46.6719C15.7996 51.3743 19.6255 55.2 24.3278 55.2C29.03 55.2 32.8559 51.3743 32.8559 46.6719C32.8559 46.6416 32.8538 46.6121 32.8535 46.5822H63.2004C63.2001 46.6121 63.1981 46.6418 63.1981 46.6719C63.1981 51.3743 67.0239 55.2 71.7262 55.2C76.4285 55.2 80.2543 51.3743 80.2543 46.6719C80.2543 46.6416 80.2523 46.6121 80.2519 46.5822H84.6532C85.3968 46.5822 85.9998 45.9793 85.9998 45.2356V30.8724C86 27.3262 83.3835 24.3799 79.9797 23.8617ZM63.0188 9.23802H73.1628C74.7963 9.23802 76.1253 10.567 76.1253 12.2005V12.2902H63.0188V9.23802ZM63.0188 23.7808V14.9832H74.9841L77.1835 23.7808H63.0188ZM24.3278 52.5073C21.1103 52.5073 18.4927 49.8898 18.4927 46.6722C18.4927 43.4546 21.1103 40.8371 24.3278 40.8371C27.5452 40.8371 30.1628 43.4546 30.1628 46.6722C30.1628 49.8898 27.5452 52.5073 24.3278 52.5073ZM71.7265 52.5073C68.5091 52.5073 65.8914 49.8898 65.8914 46.6722C65.8914 43.4546 68.5091 40.8371 71.7265 40.8371C74.944 40.8371 77.5616 43.4546 77.5616 46.6722C77.5616 49.8898 74.944 52.5073 71.7265 52.5073ZM83.307 35.2713H81.7808C80.9393 35.2713 80.2546 34.5867 80.2546 33.7452V32.219H83.3068V35.2713H83.307Z" fill="#454545"/>
<path d="M24.3278 43.8893C22.7932 43.8893 21.5449 45.1376 21.5449 46.6722C21.5449 48.2068 22.7932 49.4551 24.3278 49.4551C25.8623 49.4551 27.1107 48.2068 27.1107 46.6722C27.1107 45.1376 25.8623 43.8893 24.3278 43.8893Z" fill="#454545"/>
<path d="M71.7265 43.8893C70.192 43.8893 68.9436 45.1376 68.9436 46.6722C68.9436 48.2068 70.192 49.4551 71.7265 49.4551C73.2611 49.4551 74.5094 48.2068 74.5094 46.6722C74.5094 45.1376 73.2611 43.8893 71.7265 43.8893Z" fill="#454545"/>
<path d="M55.9269 38.1442H35.8183C35.0747 38.1442 34.4717 38.747 34.4717 39.4908C34.4717 40.2345 35.0745 40.8374 35.8183 40.8374H55.9269C56.6705 40.8374 57.2735 40.2345 57.2735 39.4908C57.2735 38.747 56.6706 38.1442 55.9269 38.1442Z" fill="#454545"/>
<path d="M21.4551 32.3988H4.21919C3.4756 32.3988 2.87259 33.0016 2.87259 33.7454C2.87259 34.4892 3.47543 35.092 4.21919 35.092H21.4551C22.1987 35.092 22.8017 34.4892 22.8017 33.7454C22.8017 33.0016 22.1987 32.3988 21.4551 32.3988Z" fill="#454545"/>
<path d="M46.8248 14.1207C46.2991 13.595 45.4463 13.595 44.9206 14.1209L32.9457 26.0956L26.7163 19.8661C26.1904 19.3402 25.3377 19.3402 24.812 19.8661C24.2861 20.392 24.2861 21.2444 24.812 21.7704L31.9937 28.952C32.2565 29.2151 32.6012 29.3464 32.9457 29.3464C33.2902 29.3464 33.6351 29.2151 33.8978 28.952L46.8247 16.0252C47.3506 15.4991 47.3506 14.6466 46.8248 14.1207Z" fill="#454545"/>
</svg>
