<svg width="231" height="55" viewBox="0 0 231 55" fill="none" xmlns="http://www.w3.org/2000/svg">
<path d="M7.30319 0H0V55H7.30319V0Z" fill="white"/>
<path d="M14.6064 0H10.9548V55H14.6064V0Z" fill="white"/>
<path d="M22.6399 0H18.258V55H22.6399V0Z" fill="white"/>
<path d="M92.0933 11.7333H69.0152V18.7733H76.8296V42.5333H84.2788V18.7733H92.0933V11.7333ZM101.295 20.2399C94.3572 20.2399 90.2675 25.2999 90.2675 31.5333C90.2675 37.8399 94.7224 42.8266 101.295 42.8266C105.239 42.8266 108.598 41.0666 110.935 39.3799L107.357 35.4933C105.458 36.2999 103.194 36.6666 101.295 36.6666C99.2504 36.6666 97.2785 35.6399 97.2785 33.6599H111.009C111.812 31.5333 111.739 28.3066 110.716 26.0333C109.11 22.2933 105.896 20.2399 101.295 20.2399ZM97.5707 29.1866C97.6437 28.0133 99.0313 26.4733 101.222 26.4733C102.683 26.4733 103.778 27.0599 104.363 27.8666C104.728 28.2333 104.874 28.7466 104.874 29.1133H97.5707V29.1866ZM114.806 42.5333H121.671V11.7333H114.806V42.5333ZM135.693 20.2399C128.755 20.2399 124.666 25.2999 124.666 31.5333C124.666 37.8399 129.12 42.8266 135.693 42.8266C139.637 42.8266 142.997 41.0666 145.334 39.3799L141.755 35.4933C139.856 36.2999 137.592 36.6666 135.693 36.6666C133.648 36.6666 131.677 35.6399 131.677 33.6599H145.407C146.21 31.5333 146.137 28.3066 145.114 26.0333C143.508 22.2933 140.294 20.2399 135.693 20.2399ZM131.969 29.1866C132.042 28.0133 133.429 26.4733 135.62 26.4733C137.081 26.4733 138.176 27.0599 138.761 27.8666C139.126 28.2333 139.272 28.7466 139.272 29.1133H131.969V29.1866ZM158.917 26.9133C160.524 26.9133 161.693 27.2799 163.445 28.7466L167.535 24.2733C165.49 21.7799 162.35 20.2399 158.917 20.2399C152.71 20.2399 147.671 25.2266 147.671 31.5333C147.671 37.7666 152.637 42.8266 158.917 42.8266C162.35 42.8266 165.49 41.2133 167.535 38.7933L163.445 34.3199C161.693 35.7866 160.451 36.1533 158.917 36.1533C156.8 36.1533 154.536 34.5399 154.536 31.5333C154.536 28.5266 156.727 26.9133 158.917 26.9133ZM180.389 20.2399C174.181 20.2399 169.142 25.2999 169.142 31.5333C169.142 37.7666 174.108 42.8266 180.389 42.8266C186.67 42.8266 191.636 37.8399 191.636 31.5333C191.709 25.2999 186.67 20.2399 180.389 20.2399ZM180.389 36.1533C178.271 36.1533 176.007 34.5399 176.007 31.5333C176.007 28.5266 178.271 26.8399 180.389 26.8399C182.507 26.8399 184.771 28.5266 184.771 31.5333C184.771 34.5399 182.58 36.1533 180.389 36.1533ZM221.36 20.2399C217.854 20.2399 215.444 21.6333 214.13 23.6133C212.523 21.4866 210.113 20.2399 206.68 20.2399C203.54 20.2399 201.203 21.4133 199.815 23.1733L199.377 20.5333H194.849V42.5333H201.714V31.6066C201.714 28.1599 203.248 26.9133 205.658 26.9133C207.995 26.9133 209.529 28.0866 209.529 31.4599V42.5333H216.394V31.6066C216.394 28.1599 217.927 26.9133 220.337 26.9133C222.747 26.9133 224.208 28.0866 224.208 31.4599V42.5333H231.073V31.0199C231 24.7866 227.86 20.2399 221.36 20.2399Z" fill="white"/>
<path fill-rule="evenodd" clip-rule="evenodd" d="M24.8309 0V55H64.2681V0H24.8309ZM46.8135 42.7533H46.5944C40.3867 42.7533 35.8587 39.82 33.2295 36.8133L38.1227 32.34C39.4373 33.5867 42.4316 35.7133 46.6674 35.7133H46.8865C50.0269 35.64 51.7066 34.6867 51.7066 33C51.7066 30.8 49.2235 30.4333 46.7405 30.14L44.6956 29.92C38.9991 29.3333 33.8868 26.9133 33.8868 21.0467C33.8868 15.0333 38.9991 11.44 45.718 11.2933H46.0101C50.319 11.2933 54.774 13.42 58.2795 16.4267L53.3864 20.9C51.0493 19.4333 47.6899 18.3333 46.0101 18.3333H45.718C44.3304 18.3333 41.3361 18.6267 41.3361 20.8267C41.3361 22.5133 43.8192 22.7333 45.718 22.9533L47.6899 23.1C54.0437 23.9067 59.1559 26.2533 59.1559 33C59.1559 39.0133 54.0436 42.68 46.8135 42.7533Z" fill="white"/>
</svg>
