<svg width="187" height="44" viewBox="0 0 187 44" fill="none" xmlns="http://www.w3.org/2000/svg">
<path d="M5.1342 0H0V38.2105H5.1342V0Z" fill="#2C6A8C"/>
<path d="M10.2684 0H7.70127V38.2105H10.2684V0Z" fill="#2C6A8C"/>
<path d="M15.916 0H12.8355V38.2105H15.916V0Z" fill="#2C6A8C"/>
<path d="M17.4224 0V38.2105H45.2981V0H17.4224ZM32.9605 29.7533H32.8057C28.4694 29.7533 25.2173 27.7154 23.3589 25.6265L26.8175 22.5187C27.7467 23.3848 29.8632 24.8623 32.8573 24.8623H33.0121C35.2319 24.8623 36.4192 24.1491 36.4192 22.9773C36.4192 21.4488 34.664 21.1941 32.9089 20.9903L31.4635 20.8375C27.437 20.3789 23.8235 18.7486 23.8235 14.6729C23.8235 10.4952 27.437 7.94779 32.1862 7.89684H32.3927C35.4384 7.89684 38.6389 9.42526 41.0652 11.4632L37.6065 14.571C35.9546 13.552 33.58 12.7878 32.3927 12.7878H32.1862C31.2054 12.7878 29.0889 12.9916 29.0889 14.52C29.0889 15.6408 30.844 15.8446 32.1862 15.9975L33.58 16.0994C38.0711 16.6088 41.6846 18.2392 41.6846 22.9263C41.6846 27.104 38.0711 29.6514 32.9605 29.7533Z" fill="#2C6A8C"/>
<path d="M66.3034 0H47.6211V5.632H53.9471V24.64H59.9774V5.632H66.3034V0ZM73.7526 6.80534C68.1361 6.80534 64.8254 10.8533 64.8254 15.84C64.8254 20.8853 68.4317 24.8747 73.7526 24.8747C76.9452 24.8747 79.6648 23.4667 81.5566 22.1173L78.6597 19.008C77.1225 19.6533 75.2898 19.9467 73.7526 19.9467C72.0973 19.9467 70.501 19.1253 70.501 17.5413H81.6157C82.2661 15.84 82.207 13.2587 81.3793 11.44C80.0786 8.448 77.4773 6.80534 73.7526 6.80534ZM70.7375 13.9627C70.7966 13.024 71.9199 11.792 73.6935 11.792C74.8759 11.792 75.7628 12.2613 76.2357 12.9067C76.5313 13.2 76.6496 13.6107 76.6496 13.904H70.7375V13.9627ZM84.69 24.64H90.2474V0H84.69V24.64ZM101.599 6.80534C95.9822 6.80534 92.6714 10.8533 92.6714 15.84C92.6714 20.8853 96.2778 24.8747 101.599 24.8747C104.791 24.8747 107.511 23.4667 109.403 22.1173L106.506 19.008C104.969 19.6533 103.136 19.9467 101.599 19.9467C99.9433 19.9467 98.347 19.1253 98.347 17.5413H109.462C110.112 15.84 110.053 13.2587 109.225 11.44C107.925 8.448 105.323 6.80534 101.599 6.80534ZM98.5835 13.9627C98.6426 13.024 99.7659 11.792 101.54 11.792C102.722 11.792 103.609 12.2613 104.082 12.9067C104.377 13.2 104.496 13.6107 104.496 13.904H98.5835V13.9627ZM120.399 12.144C121.7 12.144 122.646 12.4373 124.065 13.6107L127.375 10.032C125.72 8.03734 123.178 6.80534 120.399 6.80534C115.374 6.80534 111.295 10.7947 111.295 15.84C111.295 20.8267 115.315 24.8747 120.399 24.8747C123.178 24.8747 125.72 23.584 127.375 21.648L124.065 18.0693C122.646 19.2427 121.641 19.536 120.399 19.536C118.685 19.536 116.852 18.2453 116.852 15.84C116.852 13.4347 118.626 12.144 120.399 12.144ZM137.781 6.80534C132.755 6.80534 128.676 10.8533 128.676 15.84C128.676 20.8267 132.696 24.8747 137.781 24.8747C142.865 24.8747 146.885 20.8853 146.885 15.84C146.945 10.8533 142.865 6.80534 137.781 6.80534ZM137.781 19.536C136.066 19.536 134.234 18.2453 134.234 15.84C134.234 13.4347 136.066 12.0853 137.781 12.0853C139.495 12.0853 141.328 13.4347 141.328 15.84C141.328 18.2453 139.554 19.536 137.781 19.536ZM170.948 6.80534C168.11 6.80534 166.159 7.92001 165.095 9.50401C163.794 7.80268 161.843 6.80534 159.064 6.80534C156.522 6.80534 154.63 7.744 153.507 9.15201L153.152 7.04H149.487V24.64H155.044V15.8987C155.044 13.1413 156.286 12.144 158.237 12.144C160.129 12.144 161.37 13.0827 161.37 15.7813V24.64H166.927V15.8987C166.927 13.1413 168.169 12.144 170.12 12.144C172.071 12.144 173.253 13.0827 173.253 15.7813V24.64H178.811V15.4293C178.752 10.4427 176.209 6.80534 170.948 6.80534Z" fill="#454545"/>
<path d="M54.318 30.7V37H53.859V31.114H49.593V37H49.134V30.7H54.318Z" fill="#353535"/>
<path d="M58.5221 32.266C58.9721 32.266 59.3741 32.368 59.7281 32.572C60.0821 32.776 60.3581 33.061 60.5561 33.427C60.7541 33.787 60.8531 34.198 60.8531 34.66C60.8531 35.116 60.7541 35.524 60.5561 35.884C60.3641 36.244 60.0941 36.526 59.7461 36.73C59.3981 36.934 59.0021 37.036 58.5581 37.036C58.1261 37.036 57.7451 36.94 57.4151 36.748C57.0911 36.556 56.8361 36.283 56.6501 35.929V38.746H56.2001V34.66C56.2001 34.198 56.2991 33.787 56.4971 33.427C56.6951 33.061 56.9681 32.776 57.3161 32.572C57.6701 32.368 58.0721 32.266 58.5221 32.266ZM58.5131 36.64C58.8731 36.64 59.1971 36.556 59.4851 36.388C59.7731 36.214 59.9981 35.977 60.1601 35.677C60.3221 35.377 60.4031 35.038 60.4031 34.66C60.4031 34.276 60.3221 33.934 60.1601 33.634C59.9981 33.334 59.7731 33.1 59.4851 32.932C59.2031 32.758 58.8791 32.671 58.5131 32.671C58.1531 32.671 57.8291 32.755 57.5411 32.923C57.2591 33.091 57.0371 33.325 56.8751 33.625C56.7191 33.925 56.6411 34.267 56.6411 34.651C56.6411 35.035 56.7191 35.377 56.8751 35.677C57.0371 35.977 57.2591 36.214 57.5411 36.388C57.8291 36.556 58.1531 36.64 58.5131 36.64Z" fill="#353535"/>
<path d="M64.2034 37.036C63.7594 37.036 63.3574 36.934 62.9974 36.73C62.6434 36.526 62.3644 36.244 62.1604 35.884C61.9564 35.518 61.8544 35.107 61.8544 34.651C61.8544 34.195 61.9564 33.787 62.1604 33.427C62.3644 33.061 62.6434 32.776 62.9974 32.572C63.3574 32.368 63.7594 32.266 64.2034 32.266C64.6474 32.266 65.0464 32.368 65.4004 32.572C65.7604 32.776 66.0424 33.061 66.2464 33.427C66.4504 33.787 66.5524 34.195 66.5524 34.651C66.5524 35.107 66.4504 35.518 66.2464 35.884C66.0424 36.244 65.7604 36.526 65.4004 36.73C65.0464 36.934 64.6474 37.036 64.2034 37.036ZM64.2034 36.631C64.5634 36.631 64.8844 36.547 65.1664 36.379C65.4544 36.211 65.6794 35.977 65.8414 35.677C66.0094 35.377 66.0934 35.035 66.0934 34.651C66.0934 34.267 66.0094 33.925 65.8414 33.625C65.6794 33.325 65.4544 33.091 65.1664 32.923C64.8844 32.755 64.5634 32.671 64.2034 32.671C63.8434 32.671 63.5194 32.755 63.2314 32.923C62.9494 33.091 62.7244 33.325 62.5564 33.625C62.3944 33.925 62.3134 34.267 62.3134 34.651C62.3134 35.035 62.3944 35.377 62.5564 35.677C62.7244 35.977 62.9494 36.211 63.2314 36.379C63.5194 36.547 63.8434 36.631 64.2034 36.631Z" fill="#353535"/>
<path d="M72.2479 32.302V36.496C72.2479 37.276 72.0589 37.852 71.6809 38.224C71.3029 38.596 70.7329 38.782 69.9709 38.782C69.5389 38.782 69.1309 38.716 68.7469 38.584C68.3629 38.452 68.0539 38.269 67.8199 38.035L68.0629 37.693C68.2969 37.909 68.5789 38.077 68.9089 38.197C69.2389 38.317 69.5899 38.377 69.9619 38.377C70.5859 38.377 71.0479 38.227 71.3479 37.927C71.6479 37.633 71.7979 37.174 71.7979 36.55V35.758C71.6059 36.1 71.3389 36.364 70.9969 36.55C70.6549 36.736 70.2709 36.829 69.8449 36.829C69.4069 36.829 69.0079 36.733 68.6479 36.541C68.2939 36.343 68.0149 36.07 67.8109 35.722C67.6069 35.374 67.5049 34.981 67.5049 34.543C67.5049 34.105 67.6069 33.712 67.8109 33.364C68.0149 33.016 68.2939 32.746 68.6479 32.554C69.0079 32.362 69.4069 32.266 69.8449 32.266C70.2769 32.266 70.6669 32.362 71.0149 32.554C71.3629 32.746 71.6299 33.016 71.8159 33.364V32.302H72.2479ZM69.8809 36.424C70.2469 36.424 70.5769 36.346 70.8709 36.19C71.1649 36.028 71.3929 35.806 71.5549 35.524C71.7229 35.236 71.8069 34.909 71.8069 34.543C71.8069 34.177 71.7229 33.853 71.5549 33.571C71.3929 33.289 71.1649 33.07 70.8709 32.914C70.5769 32.752 70.2469 32.671 69.8809 32.671C69.5149 32.671 69.1849 32.752 68.8909 32.914C68.6029 33.07 68.3749 33.289 68.2069 33.571C68.0449 33.853 67.9639 34.177 67.9639 34.543C67.9639 34.909 68.0449 35.236 68.2069 35.524C68.3749 35.806 68.6029 36.028 68.8909 36.19C69.1849 36.346 69.5149 36.424 69.8809 36.424Z" fill="#353535"/>
<path d="M78.3458 32.302V37H77.9048V35.893C77.7188 36.259 77.4578 36.541 77.1218 36.739C76.7858 36.937 76.4048 37.036 75.9788 37.036C75.5408 37.036 75.1448 36.934 74.7908 36.73C74.4368 36.526 74.1578 36.244 73.9538 35.884C73.7558 35.524 73.6568 35.113 73.6568 34.651C73.6568 34.189 73.7558 33.778 73.9538 33.418C74.1578 33.052 74.4368 32.77 74.7908 32.572C75.1448 32.368 75.5408 32.266 75.9788 32.266C76.3988 32.266 76.7738 32.365 77.1038 32.563C77.4398 32.761 77.7038 33.037 77.8958 33.391V32.302H78.3458ZM76.0058 36.631C76.3658 36.631 76.6868 36.547 76.9688 36.379C77.2568 36.211 77.4818 35.977 77.6438 35.677C77.8118 35.377 77.8958 35.035 77.8958 34.651C77.8958 34.267 77.8118 33.925 77.6438 33.625C77.4818 33.325 77.2568 33.091 76.9688 32.923C76.6868 32.755 76.3658 32.671 76.0058 32.671C75.6458 32.671 75.3218 32.755 75.0338 32.923C74.7518 33.091 74.5268 33.325 74.3588 33.625C74.1968 33.925 74.1158 34.267 74.1158 34.651C74.1158 35.035 74.1968 35.377 74.3588 35.677C74.5268 35.977 74.7518 36.211 75.0338 36.379C75.3218 36.547 75.6458 36.631 76.0058 36.631Z" fill="#353535"/>
<path d="M84.2481 34.822H83.1411V37H82.6911V34.822H81.5931L80.0271 37H79.4781L81.2331 34.588L79.6221 32.302H80.1171L81.5931 34.435H82.6911V32.302H83.1411V34.435H84.2481L85.7241 32.302H86.2191L84.6081 34.588L86.3541 37H85.8141L84.2481 34.822Z" fill="#353535"/>
<path d="M91.5118 32.302V37H91.0708V35.893C90.8848 36.259 90.6238 36.541 90.2878 36.739C89.9518 36.937 89.5708 37.036 89.1448 37.036C88.7068 37.036 88.3108 36.934 87.9568 36.73C87.6028 36.526 87.3238 36.244 87.1198 35.884C86.9218 35.524 86.8228 35.113 86.8228 34.651C86.8228 34.189 86.9218 33.778 87.1198 33.418C87.3238 33.052 87.6028 32.77 87.9568 32.572C88.3108 32.368 88.7068 32.266 89.1448 32.266C89.5648 32.266 89.9398 32.365 90.2698 32.563C90.6058 32.761 90.8698 33.037 91.0618 33.391V32.302H91.5118ZM89.1718 36.631C89.5318 36.631 89.8528 36.547 90.1348 36.379C90.4228 36.211 90.6478 35.977 90.8098 35.677C90.9778 35.377 91.0618 35.035 91.0618 34.651C91.0618 34.267 90.9778 33.925 90.8098 33.625C90.6478 33.325 90.4228 33.091 90.1348 32.923C89.8528 32.755 89.5318 32.671 89.1718 32.671C88.8118 32.671 88.4878 32.755 88.1998 32.923C87.9178 33.091 87.6928 33.325 87.5248 33.625C87.3628 33.925 87.2818 34.267 87.2818 34.651C87.2818 35.035 87.3628 35.377 87.5248 35.677C87.6928 35.977 87.9178 36.211 88.1998 36.379C88.4878 36.547 88.8118 36.631 89.1718 36.631Z" fill="#353535"/>
<path d="M95.2181 29.422H95.6321L92.6621 37.9H92.2481L95.2181 29.422Z" fill="#353535"/>
<path d="M98.4069 32.266C98.8569 32.266 99.2589 32.368 99.6129 32.572C99.9669 32.776 100.243 33.061 100.441 33.427C100.639 33.787 100.738 34.198 100.738 34.66C100.738 35.116 100.639 35.524 100.441 35.884C100.249 36.244 99.9789 36.526 99.6309 36.73C99.2829 36.934 98.8869 37.036 98.4429 37.036C98.0109 37.036 97.6299 36.94 97.2999 36.748C96.9759 36.556 96.7209 36.283 96.5349 35.929V38.746H96.0849V34.66C96.0849 34.198 96.1839 33.787 96.3819 33.427C96.5799 33.061 96.8529 32.776 97.2009 32.572C97.5549 32.368 97.9569 32.266 98.4069 32.266ZM98.3979 36.64C98.7579 36.64 99.0819 36.556 99.3699 36.388C99.6579 36.214 99.8829 35.977 100.045 35.677C100.207 35.377 100.288 35.038 100.288 34.66C100.288 34.276 100.207 33.934 100.045 33.634C99.8829 33.334 99.6579 33.1 99.3699 32.932C99.0879 32.758 98.7639 32.671 98.3979 32.671C98.0379 32.671 97.7139 32.755 97.4259 32.923C97.1439 33.091 96.9219 33.325 96.7599 33.625C96.6039 33.925 96.5259 34.267 96.5259 34.651C96.5259 35.035 96.6039 35.377 96.7599 35.677C96.9219 35.977 97.1439 36.214 97.4259 36.388C97.7139 36.556 98.0379 36.64 98.3979 36.64Z" fill="#353535"/>
<path d="M104.124 36.631C104.43 36.631 104.712 36.577 104.97 36.469C105.234 36.355 105.453 36.19 105.627 35.974L105.888 36.271C105.684 36.523 105.429 36.715 105.123 36.847C104.817 36.973 104.481 37.036 104.115 37.036C103.647 37.036 103.227 36.934 102.855 36.73C102.489 36.526 102.201 36.244 101.991 35.884C101.787 35.524 101.685 35.113 101.685 34.651C101.685 34.189 101.781 33.778 101.973 33.418C102.171 33.058 102.444 32.776 102.792 32.572C103.14 32.368 103.533 32.266 103.971 32.266C104.379 32.266 104.745 32.362 105.069 32.554C105.399 32.74 105.66 33.001 105.852 33.337C106.05 33.667 106.158 34.039 106.176 34.453L102.207 35.227C102.321 35.659 102.549 36.001 102.891 36.253C103.233 36.505 103.644 36.631 104.124 36.631ZM103.971 32.662C103.617 32.662 103.299 32.746 103.017 32.914C102.735 33.076 102.516 33.307 102.36 33.607C102.204 33.901 102.126 34.237 102.126 34.615C102.126 34.681 102.132 34.774 102.144 34.894L105.726 34.192C105.684 33.91 105.585 33.652 105.429 33.418C105.273 33.184 105.069 33.001 104.817 32.869C104.565 32.731 104.283 32.662 103.971 32.662Z" fill="#353535"/>
<path d="M112.698 32.302V37H112.284V33.022L110.241 36.397H110.034L108 33.031V37H107.586V32.302H108.027L110.151 35.857L112.284 32.302H112.698Z" fill="#353535"/>
<path d="M116.516 37.036C116.072 37.036 115.67 36.934 115.31 36.73C114.956 36.526 114.677 36.244 114.473 35.884C114.269 35.518 114.167 35.107 114.167 34.651C114.167 34.195 114.269 33.787 114.473 33.427C114.677 33.061 114.956 32.776 115.31 32.572C115.67 32.368 116.072 32.266 116.516 32.266C116.96 32.266 117.359 32.368 117.713 32.572C118.073 32.776 118.355 33.061 118.559 33.427C118.763 33.787 118.865 34.195 118.865 34.651C118.865 35.107 118.763 35.518 118.559 35.884C118.355 36.244 118.073 36.526 117.713 36.73C117.359 36.934 116.96 37.036 116.516 37.036ZM116.516 36.631C116.876 36.631 117.197 36.547 117.479 36.379C117.767 36.211 117.992 35.977 118.154 35.677C118.322 35.377 118.406 35.035 118.406 34.651C118.406 34.267 118.322 33.925 118.154 33.625C117.992 33.325 117.767 33.091 117.479 32.923C117.197 32.755 116.876 32.671 116.516 32.671C116.156 32.671 115.832 32.755 115.544 32.923C115.262 33.091 115.037 33.325 114.869 33.625C114.707 33.925 114.626 34.267 114.626 34.651C114.626 35.035 114.707 35.377 114.869 35.677C115.037 35.977 115.262 36.211 115.544 36.379C115.832 36.547 116.156 36.631 116.516 36.631Z" fill="#353535"/>
<path d="M120.33 32.302H120.78V34.444H123.966V32.302H124.416V37H123.966V34.84H120.78V37H120.33V32.302Z" fill="#353535"/>
<path d="M132.21 32.266C132.792 32.266 133.248 32.437 133.578 32.779C133.914 33.121 134.082 33.613 134.082 34.255V37H133.632V34.291C133.632 33.763 133.503 33.361 133.245 33.085C132.987 32.809 132.627 32.671 132.165 32.671C131.637 32.671 131.217 32.836 130.905 33.166C130.599 33.496 130.446 33.94 130.446 34.498V37H129.996V34.291C129.996 33.763 129.867 33.361 129.609 33.085C129.351 32.809 128.991 32.671 128.529 32.671C128.001 32.671 127.581 32.836 127.269 33.166C126.963 33.496 126.81 33.94 126.81 34.498V37H126.36V32.302H126.792V33.31C126.948 32.98 127.179 32.725 127.485 32.545C127.797 32.359 128.166 32.266 128.592 32.266C129.018 32.266 129.378 32.362 129.672 32.554C129.972 32.746 130.185 33.028 130.311 33.4C130.467 33.052 130.71 32.776 131.04 32.572C131.376 32.368 131.766 32.266 132.21 32.266Z" fill="#353535"/>
<path d="M137.66 29.422H138.074L135.104 37.9H134.69L137.66 29.422Z" fill="#353535"/>
<path d="M142.286 32.302V37H141.845V35.893C141.659 36.259 141.398 36.541 141.062 36.739C140.726 36.937 140.345 37.036 139.919 37.036C139.481 37.036 139.085 36.934 138.731 36.73C138.377 36.526 138.098 36.244 137.894 35.884C137.696 35.524 137.597 35.113 137.597 34.651C137.597 34.189 137.696 33.778 137.894 33.418C138.098 33.052 138.377 32.77 138.731 32.572C139.085 32.368 139.481 32.266 139.919 32.266C140.339 32.266 140.714 32.365 141.044 32.563C141.38 32.761 141.644 33.037 141.836 33.391V32.302H142.286ZM139.946 36.631C140.306 36.631 140.627 36.547 140.909 36.379C141.197 36.211 141.422 35.977 141.584 35.677C141.752 35.377 141.836 35.035 141.836 34.651C141.836 34.267 141.752 33.925 141.584 33.625C141.422 33.325 141.197 33.091 140.909 32.923C140.627 32.755 140.306 32.671 139.946 32.671C139.586 32.671 139.262 32.755 138.974 32.923C138.692 33.091 138.467 33.325 138.299 33.625C138.137 33.925 138.056 34.267 138.056 34.651C138.056 35.035 138.137 35.377 138.299 35.677C138.467 35.977 138.692 36.211 138.974 36.379C139.262 36.547 139.586 36.631 139.946 36.631Z" fill="#353535"/>
<path d="M146.298 32.266C146.748 32.266 147.15 32.368 147.504 32.572C147.858 32.776 148.134 33.061 148.332 33.427C148.53 33.787 148.629 34.198 148.629 34.66C148.629 35.116 148.53 35.524 148.332 35.884C148.14 36.244 147.87 36.526 147.522 36.73C147.174 36.934 146.778 37.036 146.334 37.036C145.902 37.036 145.521 36.94 145.191 36.748C144.867 36.556 144.612 36.283 144.426 35.929V38.746H143.976V34.66C143.976 34.198 144.075 33.787 144.273 33.427C144.471 33.061 144.744 32.776 145.092 32.572C145.446 32.368 145.848 32.266 146.298 32.266ZM146.289 36.64C146.649 36.64 146.973 36.556 147.261 36.388C147.549 36.214 147.774 35.977 147.936 35.677C148.098 35.377 148.179 35.038 148.179 34.66C148.179 34.276 148.098 33.934 147.936 33.634C147.774 33.334 147.549 33.1 147.261 32.932C146.979 32.758 146.655 32.671 146.289 32.671C145.929 32.671 145.605 32.755 145.317 32.923C145.035 33.091 144.813 33.325 144.651 33.625C144.495 33.925 144.417 34.267 144.417 34.651C144.417 35.035 144.495 35.377 144.651 35.677C144.813 35.977 145.035 36.214 145.317 36.388C145.605 36.556 145.929 36.64 146.289 36.64Z" fill="#353535"/>
<path d="M152.016 36.631C152.322 36.631 152.604 36.577 152.862 36.469C153.126 36.355 153.345 36.19 153.519 35.974L153.78 36.271C153.576 36.523 153.321 36.715 153.015 36.847C152.709 36.973 152.373 37.036 152.007 37.036C151.539 37.036 151.119 36.934 150.747 36.73C150.381 36.526 150.093 36.244 149.883 35.884C149.679 35.524 149.577 35.113 149.577 34.651C149.577 34.189 149.673 33.778 149.865 33.418C150.063 33.058 150.336 32.776 150.684 32.572C151.032 32.368 151.425 32.266 151.863 32.266C152.271 32.266 152.637 32.362 152.961 32.554C153.291 32.74 153.552 33.001 153.744 33.337C153.942 33.667 154.05 34.039 154.068 34.453L150.099 35.227C150.213 35.659 150.441 36.001 150.783 36.253C151.125 36.505 151.536 36.631 152.016 36.631ZM151.863 32.662C151.509 32.662 151.191 32.746 150.909 32.914C150.627 33.076 150.408 33.307 150.252 33.607C150.096 33.901 150.018 34.237 150.018 34.615C150.018 34.681 150.024 34.774 150.036 34.894L153.618 34.192C153.576 33.91 153.477 33.652 153.321 33.418C153.165 33.184 152.961 33.001 152.709 32.869C152.457 32.731 152.175 32.662 151.863 32.662Z" fill="#353535"/>
<path d="M155.478 32.302H155.928V34.444H159.114V32.302H159.564V37H159.114V34.84H155.928V37H155.478V32.302Z" fill="#353535"/>
<path d="M165.737 32.302V36.496C165.737 37.276 165.548 37.852 165.17 38.224C164.792 38.596 164.222 38.782 163.46 38.782C163.028 38.782 162.62 38.716 162.236 38.584C161.852 38.452 161.543 38.269 161.309 38.035L161.552 37.693C161.786 37.909 162.068 38.077 162.398 38.197C162.728 38.317 163.079 38.377 163.451 38.377C164.075 38.377 164.537 38.227 164.837 37.927C165.137 37.633 165.287 37.174 165.287 36.55V35.758C165.095 36.1 164.828 36.364 164.486 36.55C164.144 36.736 163.76 36.829 163.334 36.829C162.896 36.829 162.497 36.733 162.137 36.541C161.783 36.343 161.504 36.07 161.3 35.722C161.096 35.374 160.994 34.981 160.994 34.543C160.994 34.105 161.096 33.712 161.3 33.364C161.504 33.016 161.783 32.746 162.137 32.554C162.497 32.362 162.896 32.266 163.334 32.266C163.766 32.266 164.156 32.362 164.504 32.554C164.852 32.746 165.119 33.016 165.305 33.364V32.302H165.737ZM163.37 36.424C163.736 36.424 164.066 36.346 164.36 36.19C164.654 36.028 164.882 35.806 165.044 35.524C165.212 35.236 165.296 34.909 165.296 34.543C165.296 34.177 165.212 33.853 165.044 33.571C164.882 33.289 164.654 33.07 164.36 32.914C164.066 32.752 163.736 32.671 163.37 32.671C163.004 32.671 162.674 32.752 162.38 32.914C162.092 33.07 161.864 33.289 161.696 33.571C161.534 33.853 161.453 34.177 161.453 34.543C161.453 34.909 161.534 35.236 161.696 35.524C161.864 35.806 162.092 36.028 162.38 36.19C162.674 36.346 163.004 36.424 163.37 36.424Z" fill="#353535"/>
<path d="M171.835 32.302V37H171.394V35.893C171.208 36.259 170.947 36.541 170.611 36.739C170.275 36.937 169.894 37.036 169.468 37.036C169.03 37.036 168.634 36.934 168.28 36.73C167.926 36.526 167.647 36.244 167.443 35.884C167.245 35.524 167.146 35.113 167.146 34.651C167.146 34.189 167.245 33.778 167.443 33.418C167.647 33.052 167.926 32.77 168.28 32.572C168.634 32.368 169.03 32.266 169.468 32.266C169.888 32.266 170.263 32.365 170.593 32.563C170.929 32.761 171.193 33.037 171.385 33.391V32.302H171.835ZM169.495 36.631C169.855 36.631 170.176 36.547 170.458 36.379C170.746 36.211 170.971 35.977 171.133 35.677C171.301 35.377 171.385 35.035 171.385 34.651C171.385 34.267 171.301 33.925 171.133 33.625C170.971 33.325 170.746 33.091 170.458 32.923C170.176 32.755 169.855 32.671 169.495 32.671C169.135 32.671 168.811 32.755 168.523 32.923C168.241 33.091 168.016 33.325 167.848 33.625C167.686 33.925 167.605 34.267 167.605 34.651C167.605 35.035 167.686 35.377 167.848 35.677C168.016 35.977 168.241 36.211 168.523 36.379C168.811 36.547 169.135 36.631 169.495 36.631Z" fill="#353535"/>
</svg>
